<?xml version="1.0" encoding="UTF-8" standalone="no"?>
<!-- Generated by graphviz version 2.40.1 (20161225.0304)
 -->

<!-- Title: snakemake_dag Pages: 1 -->

<svg
   xmlns:dc="http://purl.org/dc/elements/1.1/"
   xmlns:cc="http://creativecommons.org/ns#"
   xmlns:rdf="http://www.w3.org/1999/02/22-rdf-syntax-ns#"
   xmlns:svg="http://www.w3.org/2000/svg"
   xmlns="http://www.w3.org/2000/svg"
   xmlns:sodipodi="http://sodipodi.sourceforge.net/DTD/sodipodi-0.dtd"
   xmlns:inkscape="http://www.inkscape.org/namespaces/inkscape"
   width="883pt"
   height="476pt"
   viewBox="0.00 0.00 882.50 476.00"
   version="1.1"
   id="svg273"
   sodipodi:docname="model_pipeline.svg"
   inkscape:version="0.92.5 (2060ec1f9f, 2020-04-08)">
  <metadata
     id="metadata279">
    <rdf:RDF>
      <cc:Work
         rdf:about="">
        <dc:format>image/svg+xml</dc:format>
        <dc:type
           rdf:resource="http://purl.org/dc/dcmitype/StillImage" />
      </cc:Work>
    </rdf:RDF>
  </metadata>
  <defs
     id="defs277" />
  <sodipodi:namedview
     pagecolor="#ffffff"
     bordercolor="#666666"
     borderopacity="1"
     objecttolerance="10"
     gridtolerance="10"
     guidetolerance="10"
     inkscape:pageopacity="0"
     inkscape:pageshadow="2"
     inkscape:window-width="1743"
     inkscape:window-height="891"
     id="namedview275"
     showgrid="false"
     inkscape:zoom="1.4346897"
     inkscape:cx="559.38514"
     inkscape:cy="135.7574"
     inkscape:window-x="0"
     inkscape:window-y="0"
     inkscape:window-maximized="0"
     inkscape:current-layer="graph0" />
  <g
     id="graph0"
     class="graph"
     transform="scale(1 1) rotate(0) translate(4 472)">
    <title
       id="title2">snakemake_dag</title>
    <polygon
       fill="#ffffff"
       stroke="transparent"
       points="-4,4 -4,-472 878.5,-472 878.5,4 -4,4"
       id="polygon4" />
    <!-- 0 -->
    <g
       id="node1"
       class="node">
      <title
         id="title6">0</title>
      <path
         fill="none"
         stroke="#d86656"
         stroke-width="2"
         d="M330,-36C330,-36 222,-36 222,-36 216,-36 210,-30 210,-24 210,-24 210,-12 210,-12 210,-6 216,0 222,0 222,0 330,0 330,0 336,0 342,-6 342,-12 342,-12 342,-24 342,-24 342,-30 336,-36 330,-36"
         id="path8" />
      <text
         text-anchor="middle"
         x="276"
         y="-15.5"
         font-family="sans"
         font-size="10.00"
         fill="#000000"
         id="text10">plot_grouped_scenarios</text>
    </g>
    <!-- 1 -->
    <g
       id="node2"
       class="node">
      <title
         id="title13">1</title>
      <path
         fill="none"
         stroke="#56d8a2"
         stroke-width="2"
         d="M319,-108C319,-108 233,-108 233,-108 227,-108 221,-102 221,-96 221,-96 221,-84 221,-84 221,-78 227,-72 233,-72 233,-72 319,-72 319,-72 325,-72 331,-78 331,-84 331,-84 331,-96 331,-96 331,-102 325,-108 319,-108"
         id="path15" />
      <text
         text-anchor="middle"
         x="276"
         y="-87.5"
         font-family="sans"
         font-size="10.00"
         fill="#000000"
         id="text17">plot_joined_scalars</text>
    </g>
    <!-- 1&#45;&gt;0 -->
    <g
       id="edge1"
       class="edge">
      <title
         id="title20">1-&gt;0</title>
      <path
         fill="none"
         stroke="#c0c0c0"
         stroke-width="2"
         d="M276,-71.8314C276,-64.131 276,-54.9743 276,-46.4166"
         id="path22" />
      <polygon
         fill="#c0c0c0"
         stroke="#c0c0c0"
         stroke-width="2"
         points="279.5001,-46.4132 276,-36.4133 272.5001,-46.4133 279.5001,-46.4132"
         id="polygon24" />
    </g>
    <!-- 2 -->
    <g
       id="node3"
       class="node">
      <title
         id="title27">2</title>
      <path
         fill="none"
         stroke="#9fd856"
         stroke-width="2"
         d="M323.5,-180C323.5,-180 228.5,-180 228.5,-180 222.5,-180 216.5,-174 216.5,-168 216.5,-168 216.5,-156 216.5,-156 216.5,-150 222.5,-144 228.5,-144 228.5,-144 323.5,-144 323.5,-144 329.5,-144 335.5,-150 335.5,-156 335.5,-156 335.5,-168 335.5,-168 335.5,-174 329.5,-180 323.5,-180"
         id="path29" />
      <text
         text-anchor="middle"
         x="276"
         y="-159.5"
         font-family="sans"
         font-size="10.00"
         fill="#000000"
         id="text31">join_scenario_results</text>
    </g>
    <!-- 2&#45;&gt;1 -->
    <g
       id="edge2"
       class="edge">
      <title
         id="title34">2-&gt;1</title>
      <path
         fill="none"
         stroke="#c0c0c0"
         stroke-width="2"
         d="M276,-143.8314C276,-136.131 276,-126.9743 276,-118.4166"
         id="path36" />
      <polygon
         fill="#c0c0c0"
         stroke="#c0c0c0"
         stroke-width="2"
         points="279.5001,-118.4132 276,-108.4133 272.5001,-118.4133 279.5001,-118.4132"
         id="polygon38" />
    </g>
    <!-- 3 -->
    <g
       id="node4"
       class="node">
      <title
         id="title41">3</title>
      <path
         fill="none"
         stroke="#56d8b1"
         stroke-width="2"
         d="M475.5,-252C475.5,-252 424.5,-252 424.5,-252 418.5,-252 412.5,-246 412.5,-240 412.5,-240 412.5,-228 412.5,-228 412.5,-222 418.5,-216 424.5,-216 424.5,-216 475.5,-216 475.5,-216 481.5,-216 487.5,-222 487.5,-228 487.5,-228 487.5,-240 487.5,-240 487.5,-246 481.5,-252 475.5,-252"
         id="path43" />
      <text
         text-anchor="middle"
         x="450"
         y="-231.5"
         font-family="sans"
         font-size="10.00"
         fill="#000000"
         id="text45">postprocess</text>
    </g>
    <!-- 3&#45;&gt;2 -->
    <g
       id="edge3"
       class="edge">
      <title
         id="title48">3-&gt;2</title>
      <path
         fill="none"
         stroke="#c0c0c0"
         stroke-width="2"
         d="M412.2446,-218.3771C387.8359,-208.2769 355.7162,-194.986 328.7942,-183.8459"
         id="path50" />
      <polygon
         fill="#c0c0c0"
         stroke="#c0c0c0"
         stroke-width="2"
         points="330.0879,-180.5934 319.5095,-180.0039 327.4114,-187.0616 330.0879,-180.5934"
         id="polygon52" />
    </g>
    <!-- 13 -->
    <g
       id="node14"
       class="node">
      <title
         id="title55">13</title>
      <path
         fill="none"
         stroke="#567bd8"
         stroke-width="2"
         d="M548,-180C548,-180 464,-180 464,-180 458,-180 452,-174 452,-168 452,-168 452,-156 452,-156 452,-150 458,-144 464,-144 464,-144 548,-144 548,-144 554,-144 560,-150 560,-156 560,-156 560,-168 560,-168 560,-174 554,-180 548,-180"
         id="path57" />
      <text
         text-anchor="middle"
         x="506"
         y="-159.5"
         font-family="sans"
         font-size="10.00"
         fill="#000000"
         id="text59">plot_scalar_results</text>
    </g>
    <!-- 3&#45;&gt;13 -->
    <g
       id="edge16"
       class="edge">
      <title
         id="title62">3-&gt;13</title>
      <path
         fill="none"
         stroke="#c0c0c0"
         stroke-width="2"
         d="M464.1312,-215.8314C470.5811,-207.5386 478.3445,-197.557 485.4252,-188.4533"
         id="path64" />
      <polygon
         fill="#c0c0c0"
         stroke="#c0c0c0"
         stroke-width="2"
         points="488.3019,-190.4556 491.6786,-180.4133 482.7764,-186.158 488.3019,-190.4556"
         id="polygon66" />
    </g>
    <!-- 14 -->
    <g
       id="node15"
       class="node">
      <title
         id="title69">14</title>
      <path
         fill="none"
         stroke="#56d8c9"
         stroke-width="2"
         d="M648,-180C648,-180 590,-180 590,-180 584,-180 578,-174 578,-168 578,-168 578,-156 578,-156 578,-150 584,-144 590,-144 590,-144 648,-144 648,-144 654,-144 660,-150 660,-156 660,-156 660,-168 660,-168 660,-174 654,-180 648,-180"
         id="path71" />
      <text
         text-anchor="middle"
         x="619"
         y="-159.5"
         font-family="sans"
         font-size="10.00"
         fill="#000000"
         id="text73">plot_dispatch</text>
    </g>
    <!-- 3&#45;&gt;14 -->
    <g
       id="edge17"
       class="edge">
      <title
         id="title76">3-&gt;14</title>
      <path
         fill="none"
         stroke="#c0c0c0"
         stroke-width="2"
         d="M487.5066,-218.0209C511.3237,-207.8739 542.4441,-194.6155 568.4305,-183.5444"
         id="path78" />
      <polygon
         fill="#c0c0c0"
         stroke="#c0c0c0"
         stroke-width="2"
         points="569.9211,-186.7138 577.7492,-179.5743 567.1774,-180.2739 569.9211,-186.7138"
         id="polygon80" />
    </g>
    <!-- 15 -->
    <g
       id="node16"
       class="node">
      <title
         id="title83">15</title>
      <path
         fill="none"
         stroke="#b6d856"
         stroke-width="2"
         d="M422,-180C422,-180 366,-180 366,-180 360,-180 354,-174 354,-168 354,-168 354,-156 354,-156 354,-150 360,-144 366,-144 366,-144 422,-144 422,-144 428,-144 434,-150 434,-156 434,-156 434,-168 434,-168 434,-174 428,-180 422,-180"
         id="path85" />
      <text
         text-anchor="middle"
         x="394"
         y="-159.5"
         font-family="sans"
         font-size="10.00"
         fill="#000000"
         id="text87">table_results</text>
    </g>
    <!-- 3&#45;&gt;15 -->
    <g
       id="edge18"
       class="edge">
      <title
         id="title90">3-&gt;15</title>
      <path
         fill="none"
         stroke="#c0c0c0"
         stroke-width="2"
         d="M435.8688,-215.8314C429.4189,-207.5386 421.6555,-197.557 414.5748,-188.4533"
         id="path92" />
      <polygon
         fill="#c0c0c0"
         stroke="#c0c0c0"
         stroke-width="2"
         points="417.2236,-186.158 408.3214,-180.4133 411.6981,-190.4556 417.2236,-186.158"
         id="polygon94" />
    </g>
    <!-- 4 -->
    <g
       id="node5"
       class="node">
      <title
         id="title97">4</title>
      <path
         fill="none"
         stroke="#68d856"
         stroke-width="2"
         d="M467.5,-324C467.5,-324 432.5,-324 432.5,-324 426.5,-324 420.5,-318 420.5,-312 420.5,-312 420.5,-300 420.5,-300 420.5,-294 426.5,-288 432.5,-288 432.5,-288 467.5,-288 467.5,-288 473.5,-288 479.5,-294 479.5,-300 479.5,-300 479.5,-312 479.5,-312 479.5,-318 473.5,-324 467.5,-324"
         id="path99" />
      <text
         text-anchor="middle"
         x="450"
         y="-303.5"
         font-family="sans"
         font-size="10.00"
         fill="#000000"
         id="text101">optimize</text>
    </g>
    <!-- 4&#45;&gt;3 -->
    <g
       id="edge4"
       class="edge">
      <title
         id="title104">4-&gt;3</title>
      <path
         fill="none"
         stroke="#c0c0c0"
         stroke-width="2"
         d="M450,-287.8314C450,-280.131 450,-270.9743 450,-262.4166"
         id="path106" />
      <polygon
         fill="#c0c0c0"
         stroke="#c0c0c0"
         stroke-width="2"
         points="453.5001,-262.4132 450,-252.4133 446.5001,-262.4133 453.5001,-262.4132"
         id="polygon108" />
    </g>
    <!-- 5 -->
    <g
       id="node6"
       class="node">
      <title
         id="title111">5</title>
      <path
         fill="none"
         stroke="#56d8d8"
         stroke-width="2"
         d="M430.5,-396C430.5,-396 345.5,-396 345.5,-396 339.5,-396 333.5,-390 333.5,-384 333.5,-384 333.5,-372 333.5,-372 333.5,-366 339.5,-360 345.5,-360 345.5,-360 430.5,-360 430.5,-360 436.5,-360 442.5,-366 442.5,-372 442.5,-372 442.5,-384 442.5,-384 442.5,-390 436.5,-396 430.5,-396"
         id="path113" />
      <text
         text-anchor="middle"
         x="388"
         y="-375.5"
         font-family="sans"
         font-size="10.00"
         fill="#000000"
         id="text115">build_datapackage</text>
    </g>
    <!-- 5&#45;&gt;4 -->
    <g
       id="edge6"
       class="edge">
      <title
         id="title118">5-&gt;4</title>
      <path
         fill="none"
         stroke="#c0c0c0"
         stroke-width="2"
         d="M403.6452,-359.8314C410.8591,-351.454 419.557,-341.3531 427.4605,-332.1749"
         id="path120" />
      <polygon
         fill="#c0c0c0"
         stroke="#c0c0c0"
         stroke-width="2"
         points="430.2711,-334.2748 434.1441,-324.4133 424.9667,-329.7071 430.2711,-334.2748"
         id="polygon122" />
    </g>
    <!-- 6 -->
    <g
       id="node7"
       class="node">
      <title
         id="title125">6</title>
      <path
         fill="none"
         stroke="#78d856"
         stroke-width="2"
         d="M82,-468C82,-468 12,-468 12,-468 6,-468 0,-462 0,-456 0,-456 0,-444 0,-444 0,-438 6,-432 12,-432 12,-432 82,-432 82,-432 88,-432 94,-438 94,-444 94,-444 94,-456 94,-456 94,-462 88,-468 82,-468"
         id="path127" />
      <text
         text-anchor="middle"
         x="47"
         y="-447.5"
         font-family="sans"
         font-size="10.00"
         fill="#000000"
         id="text129">prepare_scalars</text>
    </g>
    <!-- 6&#45;&gt;5 -->
    <g
       id="edge7"
       class="edge">
      <title
         id="title132">6-&gt;5</title>
      <path
         fill="none"
         stroke="#c0c0c0"
         stroke-width="2"
         d="M94.2369,-434.363C97.1915,-433.5259 100.1299,-432.7302 103,-432 177.8158,-412.966 265.2245,-397.3645 323.3174,-387.9098"
         id="path134" />
      <polygon
         fill="#c0c0c0"
         stroke="#c0c0c0"
         stroke-width="2"
         points="324.1406,-391.3223 333.4553,-386.2738 323.0253,-384.4117 324.1406,-391.3223"
         id="polygon136" />
    </g>
    <!-- 7 -->
    <g
       id="node8"
       class="node">
      <title
         id="title139">7</title>
      <path
         fill="none"
         stroke="#56d86b"
         stroke-width="2"
         d="M226,-468C226,-468 124,-468 124,-468 118,-468 112,-462 112,-456 112,-456 112,-444 112,-444 112,-438 118,-432 124,-432 124,-432 226,-432 226,-432 232,-432 238,-438 238,-444 238,-444 238,-456 238,-456 238,-462 232,-468 226,-468"
         id="path141" />
      <text
         text-anchor="middle"
         x="175"
         y="-447.5"
         font-family="sans"
         font-size="10.00"
         fill="#000000"
         id="text143">prepare_heat_demand</text>
    </g>
    <!-- 7&#45;&gt;5 -->
    <g
       id="edge10"
       class="edge">
      <title
         id="title146">7-&gt;5</title>
      <path
         fill="none"
         stroke="#c0c0c0"
         stroke-width="2"
         d="M228.474,-431.9243C257.7189,-422.0387 294.1259,-409.7321 324.7726,-399.3726"
         id="path148" />
      <polygon
         fill="#c0c0c0"
         stroke="#c0c0c0"
         stroke-width="2"
         points="326.1514,-402.6012 334.504,-396.0831 323.9098,-395.9698 326.1514,-402.6012"
         id="polygon150" />
    </g>
    <!-- 8 -->
    <g
       id="node9"
       class="node">
      <title
         id="title153">8</title>
      <path
         fill="none"
         stroke="#d8c356"
         stroke-width="2"
         d="M378,-468C378,-468 268,-468 268,-468 262,-468 256,-462 256,-456 256,-456 256,-444 256,-444 256,-438 262,-432 268,-432 268,-432 378,-432 378,-432 384,-432 390,-438 390,-444 390,-444 390,-456 390,-456 390,-462 384,-468 378,-468"
         id="path155" />
      <text
         text-anchor="middle"
         x="323"
         y="-447.5"
         font-family="sans"
         font-size="10.00"
         fill="#000000"
         id="text157">prepare_cop_timeseries</text>
    </g>
    <!-- 8&#45;&gt;5 -->
    <g
       id="edge8"
       class="edge">
      <title
         id="title160">8-&gt;5</title>
      <path
         fill="none"
         stroke="#c0c0c0"
         stroke-width="2"
         d="M339.4022,-431.8314C347.0415,-423.3694 356.2683,-413.1489 364.6207,-403.8971"
         id="path162" />
      <polygon
         fill="#c0c0c0"
         stroke="#c0c0c0"
         stroke-width="2"
         points="367.2738,-406.1813 371.3769,-396.4133 362.0779,-401.4906 367.2738,-406.1813"
         id="polygon164" />
    </g>
    <!-- 9 -->
    <g
       id="node10"
       class="node">
      <title
         id="title167">9</title>
      <path
         fill="none"
         stroke="#d8a456"
         stroke-width="2"
         d="M486,-468C486,-468 420,-468 420,-468 414,-468 408,-462 408,-456 408,-456 408,-444 408,-444 408,-438 414,-432 420,-432 420,-432 486,-432 486,-432 492,-432 498,-438 498,-444 498,-444 498,-456 498,-456 498,-462 492,-468 486,-468"
         id="path169" />
      <text
         text-anchor="middle"
         x="453"
         y="-447.5"
         font-family="sans"
         font-size="10.00"
         fill="#000000"
         id="text171">prepare_feedin</text>
    </g>
    <!-- 9&#45;&gt;5 -->
    <g
       id="edge12"
       class="edge">
      <title
         id="title174">9-&gt;5</title>
      <path
         fill="none"
         stroke="#c0c0c0"
         stroke-width="2"
         d="M436.5978,-431.8314C428.9585,-423.3694 419.7317,-413.1489 411.3793,-403.8971"
         id="path176" />
      <polygon
         fill="#c0c0c0"
         stroke="#c0c0c0"
         stroke-width="2"
         points="413.9221,-401.4906 404.6231,-396.4133 408.7262,-406.1813 413.9221,-401.4906"
         id="polygon178" />
    </g>
    <!-- 10 -->
    <g
       id="node11"
       class="node">
      <title
         id="title181">10</title>
      <path
         fill="none"
         stroke="#56a2d8"
         stroke-width="2"
         d="M657.5,-468C657.5,-468 528.5,-468 528.5,-468 522.5,-468 516.5,-462 516.5,-456 516.5,-456 516.5,-444 516.5,-444 516.5,-438 522.5,-432 528.5,-432 528.5,-432 657.5,-432 657.5,-432 663.5,-432 669.5,-438 669.5,-444 669.5,-444 669.5,-456 669.5,-456 669.5,-462 663.5,-468 657.5,-468"
         id="path183" />
      <text
         text-anchor="middle"
         x="593"
         y="-447.5"
         font-family="sans"
         font-size="10.00"
         fill="#000000"
         id="text185">prepare_electricity_demand</text>
    </g>
    <!-- 10&#45;&gt;5 -->
    <g
       id="edge9"
       class="edge">
      <title
         id="title188">10-&gt;5</title>
      <path
         fill="none"
         stroke="#c0c0c0"
         stroke-width="2"
         d="M541.5345,-431.9243C513.5098,-422.0815 478.6516,-409.8386 449.236,-399.5073"
         id="path190" />
      <polygon
         fill="#c0c0c0"
         stroke="#c0c0c0"
         stroke-width="2"
         points="450.0816,-396.0947 439.4867,-396.0831 447.7619,-402.6992 450.0816,-396.0947"
         id="polygon192" />
    </g>
    <!-- 11 -->
    <g
       id="node12"
       class="node">
      <title
         id="title195">11</title>
      <path
         fill="none"
         stroke="#56d88a"
         stroke-width="2"
         d="M862.5,-468C862.5,-468 699.5,-468 699.5,-468 693.5,-468 687.5,-462 687.5,-456 687.5,-456 687.5,-444 687.5,-444 687.5,-438 693.5,-432 699.5,-432 699.5,-432 862.5,-432 862.5,-432 868.5,-432 874.5,-438 874.5,-444 874.5,-444 874.5,-456 874.5,-456 874.5,-462 868.5,-468 862.5,-468"
         id="path197" />
      <text
         text-anchor="middle"
         x="781"
         y="-447.5"
         font-family="sans"
         font-size="10.00"
         fill="#000000"
         id="text199">prepare_vehicle_charging_demand</text>
    </g>
    <!-- 11&#45;&gt;5 -->
    <g
       id="edge11"
       class="edge">
      <title
         id="title202">11-&gt;5</title>
      <path
         fill="none"
         stroke="#c0c0c0"
         stroke-width="2"
         d="M687.3548,-433.4092C684.5388,-432.9312 681.7489,-432.4605 679,-432 581.4024,-415.6507 553.5091,-417.7134 452.6953,-396.0156"
         id="path204" />
      <polygon
         fill="#c0c0c0"
         stroke="#c0c0c0"
         stroke-width="2"
         points="453.2225,-392.5484 442.7067,-393.8402 451.7329,-399.3881 453.2225,-392.5484"
         id="polygon206" />
    </g>
    <!-- 12 -->
    <g
       id="node13"
       class="node">
      <title
         id="title209">12</title>
      <path
         fill="none"
         stroke="#566bd8"
         stroke-width="2"
         d="M535.5,-108C535.5,-108 436.5,-108 436.5,-108 430.5,-108 424.5,-102 424.5,-96 424.5,-96 424.5,-84 424.5,-84 424.5,-78 430.5,-72 436.5,-72 436.5,-72 535.5,-72 535.5,-72 541.5,-72 547.5,-78 547.5,-84 547.5,-84 547.5,-96 547.5,-96 547.5,-102 541.5,-108 535.5,-108"
         id="path211" />
      <text
         x="485.79004"
         y="-87.380371"
         font-size="10.00"
         id="text213"
         style="font-size:10px;font-family:sans;text-anchor:middle;fill:#000000">run_all_scenarios</text>
    </g>
    <!-- 13&#45;&gt;12 -->
    <g
       id="edge15"
       class="edge">
      <title
         id="title216">13-&gt;12</title>
      <path
         fill="none"
         stroke="#c0c0c0"
         stroke-width="2"
         d="M500.9532,-143.8314C498.7906,-136.0463 496.2147,-126.7729 493.8152,-118.1347"
         id="path218" />
      <polygon
         fill="#c0c0c0"
         stroke="#c0c0c0"
         stroke-width="2"
         points="497.1636,-117.1117 491.1148,-108.4133 490.419,-118.9852 497.1636,-117.1117"
         id="polygon220" />
    </g>
    <!-- 16 -->
    <g
       id="node17"
       class="node">
      <title
         id="title223">16</title>
      <path
         fill="none"
         stroke="#56d87b"
         stroke-width="2"
         d="M660,-108C660,-108 578,-108 578,-108 572,-108 566,-102 566,-96 566,-96 566,-84 566,-84 566,-78 572,-72 578,-72 578,-72 660,-72 660,-72 666,-72 672,-78 672,-84 672,-84 672,-96 672,-96 672,-102 666,-108 660,-108"
         id="path225" />
      <text
         x="618.79004"
         y="-87.380371"
         font-size="10.00"
         id="text227"
         style="font-size:10px;font-family:sans;text-anchor:middle;fill:#000000">run_all_examples</text>
    </g>
    <!-- 13&#45;&gt;16 -->
    <g
       id="edge20"
       class="edge">
      <title
         id="title230">13-&gt;16</title>
      <path
         fill="none"
         stroke="#c0c0c0"
         stroke-width="2"
         d="M534.5147,-143.8314C548.8342,-134.7074 566.3624,-123.539 581.7338,-113.7449"
         id="path232" />
      <polygon
         fill="#c0c0c0"
         stroke="#c0c0c0"
         stroke-width="2"
         points="583.9417,-116.4882 590.4945,-108.1628 580.1801,-110.5847 583.9417,-116.4882"
         id="polygon234" />
    </g>
    <!-- 14&#45;&gt;12 -->
    <g
       id="edge13"
       class="edge">
      <title
         id="title237">14-&gt;12</title>
      <path
         fill="none"
         stroke="#c0c0c0"
         stroke-width="2"
         d="M585.4385,-143.8314C568.1119,-134.4516 546.7942,-122.9112 528.3464,-112.9244"
         id="path239" />
      <polygon
         fill="#c0c0c0"
         stroke="#c0c0c0"
         stroke-width="2"
         points="530.0111,-109.8457 519.5508,-108.1628 526.6786,-116.0015 530.0111,-109.8457"
         id="polygon241" />
    </g>
    <!-- 14&#45;&gt;16 -->
    <g
       id="edge19"
       class="edge">
      <title
         id="title244">14-&gt;16</title>
      <path
         fill="none"
         stroke="#c0c0c0"
         stroke-width="2"
         d="M619,-143.8314C619,-136.131 619,-126.9743 619,-118.4166"
         id="path246" />
      <polygon
         fill="#c0c0c0"
         stroke="#c0c0c0"
         stroke-width="2"
         points="622.5001,-118.4132 619,-108.4133 615.5001,-118.4133 622.5001,-118.4132"
         id="polygon248" />
    </g>
    <!-- 15&#45;&gt;12 -->
    <g
       id="edge14"
       class="edge">
      <title
         id="title251">15-&gt;12</title>
      <path
         fill="none"
         stroke="#c0c0c0"
         stroke-width="2"
         d="M417.2155,-143.8314C428.547,-134.9632 442.3464,-124.1637 454.6027,-114.5718"
         id="path253" />
      <polygon
         fill="#c0c0c0"
         stroke="#c0c0c0"
         stroke-width="2"
         points="457.074,-117.0822 462.7919,-108.1628 452.7598,-111.5697 457.074,-117.0822"
         id="polygon255" />
    </g>
    <!-- 17 -->
    <g
       id="node18"
       class="node">
      <title
         id="title258">17</title>
      <path
         fill="none"
         stroke="#d85656"
         stroke-width="2"
         d="M551,-396C551,-396 473,-396 473,-396 467,-396 461,-390 461,-384 461,-384 461,-372 461,-372 461,-366 467,-360 473,-360 473,-360 551,-360 551,-360 557,-360 563,-366 563,-372 563,-372 563,-384 563,-384 563,-390 557,-396 551,-396"
         id="path260" />
      <text
         text-anchor="middle"
         x="512"
         y="-375.5"
         font-family="sans"
         font-size="10.00"
         fill="#000000"
         id="text262">prepare_example</text>
    </g>
    <!-- 17&#45;&gt;4 -->
    <g
       id="edge5"
       class="edge">
      <title
         id="title265">17-&gt;4</title>
      <path
         fill="none"
         stroke="#c0c0c0"
         stroke-width="2"
         d="M496.3548,-359.8314C489.1409,-351.454 480.443,-341.3531 472.5395,-332.1749"
         id="path267" />
      <polygon
         fill="#c0c0c0"
         stroke="#c0c0c0"
         stroke-width="2"
         points="475.0333,-329.7071 465.8559,-324.4133 469.7289,-334.2748 475.0333,-329.7071"
         id="polygon269" />
    </g>
  </g>
</svg>
