<?xml version="1.0" encoding="UTF-8"?><svg xmlns="http://www.w3.org/2000/svg" xmlns:xlink="http://www.w3.org/1999/xlink" fill-opacity="1" color-rendering="auto" color-interpolation="auto" text-rendering="auto" stroke="black" stroke-linecap="square" width="865" stroke-miterlimit="10" shape-rendering="auto" stroke-opacity="1" fill="black" stroke-dasharray="none" font-weight="normal" stroke-width="1" height="865" font-family="'Dialog'" font-style="normal" stroke-linejoin="miter" font-size="12px" stroke-dashoffset="0" image-rendering="auto">
  <!--Generated by ySVG 2.5-->
  <defs id="genericDefs"/>
  <g>
    <defs id="defs1">
      <clipPath clipPathUnits="userSpaceOnUse" id="clipPath1">
        <path d="M0 0 L865 0 L865 865 L0 865 L0 0 Z"/>
      </clipPath>
      <clipPath clipPathUnits="userSpaceOnUse" id="clipPath2">
        <path d="M348 -68 L1213 -68 L1213 797 L348 797 L348 -68 Z"/>
      </clipPath>
    </defs>
    <g fill="white" text-rendering="geometricPrecision" shape-rendering="geometricPrecision" transform="translate(-348,68)" stroke="white">
      <rect x="348" width="865" height="865" y="-68" clip-path="url(#clipPath2)" stroke="none"/>
    </g>
    <g text-rendering="geometricPrecision" stroke-miterlimit="1.45" shape-rendering="geometricPrecision" transform="matrix(1,0,0,1,-348,68)" stroke-linecap="butt">
      <path fill="none" d="M515.0704 69.8826 L515.0704 403.1128" clip-path="url(#clipPath2)"/>
      <path d="M515.0704 414.1128 L521.0704 402.1128 L509.0704 402.1128 Z" clip-path="url(#clipPath2)" stroke="none"/>
      <path fill="none" d="M838.8704 35.8266 L838.8704 51.0289" clip-path="url(#clipPath2)"/>
      <path d="M838.8704 24.8266 L832.8704 36.8266 L844.8704 36.8266 Z" clip-path="url(#clipPath2)" stroke="none"/>
      <path d="M838.8704 62.0289 L844.8704 50.0289 L832.8704 50.0289 Z" clip-path="url(#clipPath2)" stroke="none"/>
      <path fill="none" d="M522.0672 24.8266 L522.0672 51.0103" clip-path="url(#clipPath2)"/>
      <path d="M522.0672 62.0103 L528.0672 50.0103 L516.0672 50.0103 Z" clip-path="url(#clipPath2)" stroke="none"/>
      <path fill="none" d="M621.4672 24.8266 L621.4672 51.0259" clip-path="url(#clipPath2)"/>
      <path d="M621.4672 62.0259 L627.4672 50.0259 L615.4672 50.0259 Z" clip-path="url(#clipPath2)" stroke="none"/>
      <path fill="none" d="M571.4672 106.9018 L571.4672 80.706" clip-path="url(#clipPath2)"/>
      <path d="M571.4672 69.706 L565.4672 81.706 L577.4672 81.706 Z" clip-path="url(#clipPath2)" stroke="none"/>
      <path fill="none" d="M1128.5143 -12.0771 L1026.3856 55.9232" clip-path="url(#clipPath2)"/>
      <path d="M1137.6704 -18.1734 L1124.3567 -16.5171 L1131.0072 -6.5286 Z" clip-path="url(#clipPath2)" stroke="none"/>
      <path d="M1017.2296 62.0197 L1030.5433 60.3633 L1023.8927 50.3748 Z" clip-path="url(#clipPath2)" stroke="none"/>
      <path fill="none" d="M858.1097 414.1128 L858.0685 80.7341" clip-path="url(#clipPath2)"/>
      <path d="M858.0672 69.7341 L852.0687 81.7348 L864.0687 81.7334 Z" clip-path="url(#clipPath2)" stroke="none"/>
      <path fill="none" d="M991.564 85.4424 L991.564 69.7237" clip-path="url(#clipPath2)"/>
      <path d="M991.564 96.4424 L997.564 84.4424 L985.564 84.4424 Z" clip-path="url(#clipPath2)" stroke="none"/>
      <path fill="none" d="M911.0672 650.296 L911.0672 80.7263" clip-path="url(#clipPath2)"/>
      <path d="M911.0672 69.7263 L905.0672 81.7263 L917.0672 81.7263 Z" clip-path="url(#clipPath2)" stroke="none"/>
      <path fill="none" d="M720.8672 24.8266 L720.8672 51.0076" clip-path="url(#clipPath2)"/>
      <path d="M720.8672 62.0076 L726.8672 50.0076 L714.8672 50.0076 Z" clip-path="url(#clipPath2)" stroke="none"/>
      <path fill="none" d="M956.8736 24.8266 L956.8736 51.0076" clip-path="url(#clipPath2)"/>
      <path d="M956.8736 62.0076 L962.8736 50.0076 L950.8736 50.0076 Z" clip-path="url(#clipPath2)" stroke="none"/>
      <path fill="none" d="M529.3771 684.8016 L529.3771 710.4578" clip-path="url(#clipPath2)"/>
      <path d="M529.3771 721.4578 L535.3771 709.4578 L523.3771 709.4578 Z" clip-path="url(#clipPath2)" stroke="none"/>
      <path fill="none" d="M1067.0675 744.9213 L1010.0792 729.1793" clip-path="url(#clipPath2)"/>
      <path d="M1077.6704 747.8501 L1067.7012 738.8716 L1064.506 750.4384 Z" clip-path="url(#clipPath2)" stroke="none"/>
      <path fill="none" d="M911.0672 695.8016 L911.0672 721.4844" clip-path="url(#clipPath2)"/>
      <path d="M911.0672 684.8016 L905.0672 696.8016 L917.0672 696.8016 Z" clip-path="url(#clipPath2)" stroke="none"/>
      <path fill="none" d="M1077.6704 703.4556 L1020.2928 718.6671" clip-path="url(#clipPath2)"/>
      <path d="M1009.6602 721.4859 L1022.797 724.2104 L1019.7219 712.6111 Z" clip-path="url(#clipPath2)" stroke="none"/>
      <path fill="none" d="M515.0704 448.6184 L515.0704 481.5535" clip-path="url(#clipPath2)"/>
      <path d="M515.0704 492.5535 L521.0704 480.5535 L509.0704 480.5535 Z" clip-path="url(#clipPath2)" stroke="none"/>
      <path fill="none" d="M858.0912 459.6184 L858.0673 492.5496" clip-path="url(#clipPath2)"/>
      <path d="M858.0993 448.6184 L852.0905 460.614 L864.0905 460.6228 Z" clip-path="url(#clipPath2)" stroke="none"/>
      <path fill="none" d="M1066.9521 515.9626 L998.7664 500.2264" clip-path="url(#clipPath2)"/>
      <path d="M1077.6704 518.4362 L1067.327 509.8914 L1064.6285 521.584 Z" clip-path="url(#clipPath2)" stroke="none"/>
      <path fill="none" d="M1077.6704 474.3342 L1009.4468 490.0594" clip-path="url(#clipPath2)"/>
      <path d="M998.7279 492.5301 L1011.7689 495.6815 L1009.0737 483.9881 Z" clip-path="url(#clipPath2)" stroke="none"/>
      <path fill="none" d="M813.0736 156.1546 L813.0736 178.127" clip-path="url(#clipPath2)"/>
      <path d="M813.0736 186.127 L818.0736 174.127 L813.0736 177.127 L808.0736 174.127 Z" clip-path="url(#clipPath2)" stroke="none"/>
      <path fill="none" d="M571.4672 141.4073 L571.4672 175.1172" clip-path="url(#clipPath2)"/>
      <path d="M571.4672 186.1172 L577.4672 174.1172 L565.4672 174.1172 Z" clip-path="url(#clipPath2)" stroke="none"/>
      <path fill="none" d="M608.6544 214.4536 L608.6544 204.8672" clip-path="url(#clipPath2)"/>
      <path d="M608.6544 225.4536 L614.6544 213.4536 L602.6544 213.4536 Z" clip-path="url(#clipPath2)" stroke="none"/>
      <path d="M608.6544 193.8672 L602.6544 205.8672 L614.6544 205.8672 Z" clip-path="url(#clipPath2)" stroke="none"/>
      <path fill="none" d="M727.0608 217.5529 L727.0608 205" clip-path="url(#clipPath2)"/>
      <path d="M727.0608 194 L721.0608 206 L733.0608 206 Z" clip-path="url(#clipPath2)" stroke="none"/>
      <path fill="none" d="M991.564 200.276 L991.564 193.8487" clip-path="url(#clipPath2)"/>
      <path d="M991.564 211.276 L997.564 199.276 L985.564 199.276 Z" clip-path="url(#clipPath2)" stroke="none"/>
      <path fill="none" d="M541.1824 721.4609 L541.1824 152.4362" clip-path="url(#clipPath2)"/>
      <path d="M541.1824 141.4362 L535.1824 153.4362 L547.1824 153.4362 Z" clip-path="url(#clipPath2)" stroke="none"/>
      <path fill="none" d="M813.0736 69.7135 L813.0736 113.649" clip-path="url(#clipPath2)"/>
      <path d="M813.0736 121.649 L818.0736 109.649 L813.0736 112.649 L808.0736 109.649 Z" clip-path="url(#clipPath2)" stroke="none"/>
      <path fill="none" d="M721.4608 721.4734 L721.4608 263.0601" clip-path="url(#clipPath2)"/>
      <path d="M721.4608 252.0601 L715.4608 264.0601 L727.4608 264.0601 Z" clip-path="url(#clipPath2)" stroke="none"/>
      <path fill="none" d="M529.3771 500.2542 L529.3771 639.2593" clip-path="url(#clipPath2)"/>
      <path d="M529.3771 650.2593 L535.3771 638.2593 L523.3771 638.2593 Z" clip-path="url(#clipPath2)" stroke="none"/>
      <path fill="none" d="M495.338 622.3383 L495.338 639.2969" clip-path="url(#clipPath2)"/>
      <path d="M495.338 650.2969 L501.338 638.2969 L489.338 638.2969 Z" clip-path="url(#clipPath2)" stroke="none"/>
      <path fill="none" d="M1077.6704 595.851 L1009.4296 612.0732" clip-path="url(#clipPath2)"/>
      <path d="M998.7278 614.6172 L1011.7902 617.6792 L1009.0148 606.0046 Z" clip-path="url(#clipPath2)" stroke="none"/>
      <path fill="none" d="M991.564 338.6072 L991.564 335" clip-path="url(#clipPath2)"/>
      <path d="M991.564 349.6072 L997.564 337.6072 L985.564 337.6072 Z" clip-path="url(#clipPath2)" stroke="none"/>
      <path fill="none" d="M613.064 352.7848 L613.064 344.8203" clip-path="url(#clipPath2)"/>
      <path d="M613.064 363.7848 L619.064 351.7848 L607.064 351.7848 Z" clip-path="url(#clipPath2)" stroke="none"/>
      <path d="M613.064 333.8203 L607.064 345.8203 L619.064 345.8203 Z" clip-path="url(#clipPath2)" stroke="none"/>
      <path fill="none" d="M752.0055 363.7848 L752.0055 346" clip-path="url(#clipPath2)"/>
      <path d="M752.0055 335 L746.0055 347 L758.0055 347 Z" clip-path="url(#clipPath2)" stroke="none"/>
      <path fill="none" d="M683.6544 310.2872 L683.6544 315.1016" clip-path="url(#clipPath2)"/>
      <path d="M683.6544 326.1016 L689.6544 314.1016 L677.6544 314.1016 Z" clip-path="url(#clipPath2)" stroke="none"/>
      <path fill="none" d="M673.5 69.7188 L673.5 264.7923" clip-path="url(#clipPath2)"/>
      <path d="M673.5 275.7923 L679.5 263.7923 L667.5 263.7923 Z" clip-path="url(#clipPath2)" stroke="none"/>
      <path fill="none" d="M760.4672 721.4813 L760.4672 409.3266" clip-path="url(#clipPath2)"/>
      <path d="M760.4672 398.3266 L754.4672 410.3266 L766.4672 410.3266 Z" clip-path="url(#clipPath2)" stroke="none"/>
      <path fill="none" d="M688.8704 70 L688.8704 113.7976" clip-path="url(#clipPath2)"/>
      <path d="M688.8704 124.7976 L694.8704 112.7976 L682.8704 112.7976 Z" clip-path="url(#clipPath2)" stroke="none"/>
      <path fill="none" d="M651.2055 511.255 L651.2055 525.1489" clip-path="url(#clipPath2)"/>
      <path d="M651.2055 500.255 L645.2055 512.255 L657.2055 512.255 Z" clip-path="url(#clipPath2)" stroke="none"/>
      <path d="M651.2055 536.1489 L657.2055 524.1489 L645.2055 524.1489 Z" clip-path="url(#clipPath2)" stroke="none"/>
    </g>
    <g fill="silver" text-rendering="geometricPrecision" shape-rendering="geometricPrecision" transform="matrix(1,0,0,1,-348,68)" stroke="silver">
      <rect x="471.6672" width="86.8064" height="34.5056" y="414.1128" clip-path="url(#clipPath2)" stroke="none"/>
    </g>
    <g font-size="14px" stroke-linecap="butt" transform="matrix(1,0,0,1,-348,68)" text-rendering="geometricPrecision" font-family="'Roboto'" shape-rendering="geometricPrecision" font-weight="bold" stroke-miterlimit="1.45">
      <text x="474.9264" xml:space="preserve" y="436.1508" clip-path="url(#clipPath2)" stroke="none">Elektrolysis</text>
    </g>
    <g fill="rgb(51,102,255)" text-rendering="geometricPrecision" shape-rendering="geometricPrecision" transform="matrix(1,0,0,1,-348,68)" stroke="rgb(51,102,255)">
      <rect x="463.4672" y="62.0266" clip-path="url(#clipPath2)" width="594" rx="4" ry="4" height="7.6752" stroke="none"/>
    </g>
    <g text-rendering="geometricPrecision" stroke-miterlimit="1.45" shape-rendering="geometricPrecision" font-family="'Roboto'" transform="matrix(1,0,0,1,-348,68)" stroke-linecap="butt">
      <text x="413.9924" xml:space="preserve" y="69.9657" clip-path="url(#clipPath2)" stroke="none">Strom</text>
    </g>
    <g fill="rgb(153,204,0)" text-rendering="geometricPrecision" shape-rendering="geometricPrecision" transform="matrix(1,0,0,1,-348,68)" stroke="rgb(153,204,0)">
      <rect x="463.4672" y="721.496" clip-path="url(#clipPath2)" width="594" rx="4" ry="4" height="7.6752" stroke="none"/>
    </g>
    <g text-rendering="geometricPrecision" stroke-miterlimit="1.45" shape-rendering="geometricPrecision" font-family="'Roboto'" transform="matrix(1,0,0,1,-348,68)" stroke-linecap="butt">
      <text x="423.3498" xml:space="preserve" y="729.4352" clip-path="url(#clipPath2)" stroke="none">CH4</text>
    </g>
    <g fill="rgb(51,204,204)" text-rendering="geometricPrecision" shape-rendering="geometricPrecision" transform="matrix(1,0,0,1,-348,68)" stroke="rgb(51,204,204)">
      <rect x="463.4672" y="492.5562" clip-path="url(#clipPath2)" width="594" rx="4" ry="4" height="7.6752" stroke="none"/>
    </g>
    <g text-rendering="geometricPrecision" stroke-miterlimit="1.45" shape-rendering="geometricPrecision" font-family="'Roboto'" transform="matrix(1,0,0,1,-348,68)" stroke-linecap="butt">
      <text x="431.1603" xml:space="preserve" y="500.4954" clip-path="url(#clipPath2)" stroke="none">H2</text>
    </g>
    <g fill="rgb(255,102,0)" text-rendering="geometricPrecision" shape-rendering="geometricPrecision" transform="matrix(1,0,0,1,-348,68)" stroke="rgb(255,102,0)">
      <rect x="463.4672" y="186.1546" clip-path="url(#clipPath2)" width="594" rx="4" ry="4" height="7.6752" stroke="none"/>
    </g>
    <g text-rendering="geometricPrecision" stroke-miterlimit="1.45" shape-rendering="geometricPrecision" font-family="'Roboto'" transform="matrix(1,0,0,1,-348,68)" stroke-linecap="butt">
      <text x="379.0881" xml:space="preserve" y="194.0937" clip-path="url(#clipPath2)" stroke="none">Heat, central</text>
    </g>
    <g fill="silver" text-rendering="geometricPrecision" shape-rendering="geometricPrecision" transform="matrix(1,0,0,1,-348,68)" stroke="silver">
      <rect x="528.064" width="86.8064" height="34.5056" y="106.9018" clip-path="url(#clipPath2)" stroke="none"/>
    </g>
    <g font-size="14px" stroke-linecap="butt" transform="matrix(1,0,0,1,-348,68)" text-rendering="geometricPrecision" font-family="'Roboto'" shape-rendering="geometricPrecision" font-weight="bold" stroke-miterlimit="1.45">
      <text x="539.5912" xml:space="preserve" y="128.9397" clip-path="url(#clipPath2)" stroke="none">CH4 CHP</text>
    </g>
    <g fill="silver" text-rendering="geometricPrecision" shape-rendering="geometricPrecision" transform="matrix(1,0,0,1,-348,68)" stroke="silver">
      <rect x="762.8704" width="100.4064" height="34.5056" y="121.649" clip-path="url(#clipPath2)" stroke="none"/>
    </g>
    <g font-size="14px" stroke-linecap="butt" transform="matrix(1,0,0,1,-348,68)" text-rendering="geometricPrecision" font-family="'Roboto'" shape-rendering="geometricPrecision" font-weight="bold" stroke-miterlimit="1.45">
      <text x="785.0292" xml:space="preserve" y="143.6869" clip-path="url(#clipPath2)" stroke="none">res. PtH</text>
    </g>
    <g fill="silver" text-rendering="geometricPrecision" shape-rendering="geometricPrecision" transform="matrix(1,0,0,1,-348,68)" stroke="silver">
      <rect x="780.4672" width="116.8064" height="34.5056" y="-9.679" clip-path="url(#clipPath2)" stroke="none"/>
    </g>
    <g font-size="14px" stroke-linecap="butt" transform="matrix(1,0,0,1,-348,68)" text-rendering="geometricPrecision" font-family="'Roboto'" shape-rendering="geometricPrecision" font-weight="bold" stroke-miterlimit="1.45">
      <text x="785.7723" xml:space="preserve" y="12.3589" clip-path="url(#clipPath2)" stroke="none">Li-Ion-Batteries</text>
    </g>
    <g fill="silver" text-rendering="geometricPrecision" shape-rendering="geometricPrecision" transform="matrix(1,0,0,1,-348,68)" stroke="silver">
      <rect x="558.4512" width="100.4064" height="34.5056" y="225.4536" clip-path="url(#clipPath2)" stroke="none"/>
    </g>
    <g font-size="14px" stroke-linecap="butt" transform="matrix(1,0,0,1,-348,68)" text-rendering="geometricPrecision" font-family="'Roboto'" shape-rendering="geometricPrecision" font-weight="bold" stroke-miterlimit="1.45">
      <text x="592.3165" xml:space="preserve" y="239.2884" clip-path="url(#clipPath2)" stroke="none">Heat</text>
      <text x="560.3859" xml:space="preserve" y="255.6947" clip-path="url(#clipPath2)" stroke="none">Storage, large</text>
    </g>
    <g fill="silver" text-rendering="geometricPrecision" shape-rendering="geometricPrecision" transform="matrix(1,0,0,1,-348,68)" stroke="silver">
      <rect x="676.8576" width="100.4064" height="34.5056" y="217.5529" clip-path="url(#clipPath2)" stroke="none"/>
    </g>
    <g font-size="14px" stroke-linecap="butt" transform="matrix(1,0,0,1,-348,68)" text-rendering="geometricPrecision" font-family="'Roboto'" shape-rendering="geometricPrecision" font-weight="bold" stroke-miterlimit="1.45">
      <text x="683.01" xml:space="preserve" y="239.5908" clip-path="url(#clipPath2)" stroke="none">Boiler.  large</text>
    </g>
    <g fill="silver" text-rendering="geometricPrecision" shape-rendering="geometricPrecision" transform="matrix(1,0,0,1,-348,68)" stroke="silver">
      <rect x="478.664" width="86.8064" height="34.5056" y="-9.679" clip-path="url(#clipPath2)" stroke="none"/>
    </g>
    <g font-size="14px" stroke-linecap="butt" transform="matrix(1,0,0,1,-348,68)" text-rendering="geometricPrecision" font-family="'Roboto'" shape-rendering="geometricPrecision" font-weight="bold" stroke-miterlimit="1.45">
      <text x="504.803" xml:space="preserve" y="12.3589" clip-path="url(#clipPath2)" stroke="none">Wind</text>
    </g>
    <g fill="silver" text-rendering="geometricPrecision" shape-rendering="geometricPrecision" transform="matrix(1,0,0,1,-348,68)" stroke="silver">
      <rect x="578.064" width="86.8064" height="34.5056" y="-9.679" clip-path="url(#clipPath2)" stroke="none"/>
    </g>
    <g font-size="14px" stroke-linecap="butt" transform="matrix(1,0,0,1,-348,68)" text-rendering="geometricPrecision" font-family="'Roboto'" shape-rendering="geometricPrecision" font-weight="bold" stroke-miterlimit="1.45">
      <text x="611.8251" xml:space="preserve" y="12.3589" clip-path="url(#clipPath2)" stroke="none">PV</text>
    </g>
    <g fill="silver" text-rendering="geometricPrecision" shape-rendering="geometricPrecision" transform="matrix(1,0,0,1,-348,68)" stroke="silver">
      <rect x="470.9739" width="116.8064" height="34.5056" y="650.296" clip-path="url(#clipPath2)" stroke="none"/>
    </g>
    <g font-size="14px" stroke-linecap="butt" transform="matrix(1,0,0,1,-348,68)" text-rendering="geometricPrecision" font-family="'Roboto'" shape-rendering="geometricPrecision" font-weight="bold" stroke-miterlimit="1.45">
      <text x="479.7687" xml:space="preserve" y="672.334" clip-path="url(#clipPath2)" stroke="none">Methanisation</text>
    </g>
    <g fill="gray" text-rendering="geometricPrecision" shape-rendering="geometricPrecision" transform="matrix(1,0,0,1,-348,68)" stroke="gray">
      <rect x="463.4672" y="614.64" clip-path="url(#clipPath2)" width="594" rx="4" ry="4" height="7.6752" stroke="none"/>
    </g>
    <g text-rendering="geometricPrecision" stroke-miterlimit="1.45" shape-rendering="geometricPrecision" font-family="'Roboto'" transform="matrix(1,0,0,1,-348,68)" stroke-linecap="butt">
      <text x="423.6545" xml:space="preserve" y="622.5792" clip-path="url(#clipPath2)" stroke="none">CO2</text>
    </g>
    <g fill="silver" text-rendering="geometricPrecision" shape-rendering="geometricPrecision" transform="matrix(1,0,0,1,-348,68)" stroke="silver">
      <rect x="1077.6704" width="120" height="34.5056" y="-52.679" clip-path="url(#clipPath2)" stroke="none"/>
    </g>
    <g font-size="14px" stroke-linecap="butt" transform="matrix(1,0,0,1,-348,68)" text-rendering="geometricPrecision" font-family="'Roboto'" shape-rendering="geometricPrecision" font-weight="bold" stroke-miterlimit="1.45">
      <text x="1090.605" xml:space="preserve" y="-30.6411" clip-path="url(#clipPath2)" stroke="none">Transmission</text>
    </g>
    <g fill="silver" text-rendering="geometricPrecision" shape-rendering="geometricPrecision" transform="matrix(1,0,0,1,-348,68)" stroke="silver">
      <rect x="802.2087" width="111.8064" height="34.5056" y="414.1128" clip-path="url(#clipPath2)" stroke="none"/>
    </g>
    <g font-size="14px" stroke-linecap="butt" transform="matrix(1,0,0,1,-348,68)" text-rendering="geometricPrecision" font-family="'Roboto'" shape-rendering="geometricPrecision" font-weight="bold" stroke-miterlimit="1.45">
      <text x="806.9107" xml:space="preserve" y="436.1508" clip-path="url(#clipPath2)" stroke="none">H2-Powerplant</text>
    </g>
    <g fill="silver" text-rendering="geometricPrecision" shape-rendering="geometricPrecision" transform="matrix(1,0,0,1,-348,68)" stroke="silver">
      <rect x="1077.6704" width="120" height="34.5056" y="747.1712" clip-path="url(#clipPath2)" stroke="none"/>
    </g>
    <g font-size="14px" stroke-linecap="butt" transform="matrix(1,0,0,1,-348,68)" text-rendering="geometricPrecision" font-family="'Roboto'" shape-rendering="geometricPrecision" font-weight="bold" stroke-miterlimit="1.45">
      <text x="1096.4565" xml:space="preserve" y="769.2092" clip-path="url(#clipPath2)" stroke="none">CH4 Export </text>
    </g>
    <g fill="silver" text-rendering="geometricPrecision" shape-rendering="geometricPrecision" transform="matrix(1,0,0,1,-348,68)" stroke="silver">
      <rect x="925.6608" width="131.8064" height="34.5056" y="211.276" clip-path="url(#clipPath2)" stroke="none"/>
    </g>
    <g font-size="14px" stroke-linecap="butt" transform="matrix(1,0,0,1,-348,68)" text-rendering="geometricPrecision" font-family="'Roboto'" shape-rendering="geometricPrecision" font-weight="bold" stroke-miterlimit="1.45">
      <text x="928.8819" xml:space="preserve" y="233.3139" clip-path="url(#clipPath2)" stroke="none">Cen. heat demand</text>
    </g>
    <g fill="silver" text-rendering="geometricPrecision" shape-rendering="geometricPrecision" transform="matrix(1,0,0,1,-348,68)" stroke="silver">
      <rect x="925.6608" width="131.8064" height="34.5056" y="96.4424" clip-path="url(#clipPath2)" stroke="none"/>
    </g>
    <g font-size="14px" stroke-linecap="butt" transform="matrix(1,0,0,1,-348,68)" text-rendering="geometricPrecision" font-family="'Roboto'" shape-rendering="geometricPrecision" font-weight="bold" stroke-miterlimit="1.45">
      <text x="953.0401" xml:space="preserve" y="118.4804" clip-path="url(#clipPath2)" stroke="none">El. demand</text>
    </g>
    <g fill="silver" text-rendering="geometricPrecision" shape-rendering="geometricPrecision" transform="matrix(1,0,0,1,-348,68)" stroke="silver">
      <rect x="838.664" width="144.8064" height="34.5056" y="650.296" clip-path="url(#clipPath2)" stroke="none"/>
    </g>
    <g font-size="14px" stroke-linecap="butt" transform="matrix(1,0,0,1,-348,68)" text-rendering="geometricPrecision" font-family="'Roboto'" shape-rendering="geometricPrecision" font-weight="bold" stroke-miterlimit="1.45">
      <text x="855.1219" xml:space="preserve" y="672.334" clip-path="url(#clipPath2)" stroke="none">CH4 Powerplant</text>
    </g>
    <g fill="silver" text-rendering="geometricPrecision" shape-rendering="geometricPrecision" transform="matrix(1,0,0,1,-348,68)" stroke="silver">
      <rect x="677.464" width="86.8064" height="34.5056" y="-9.679" clip-path="url(#clipPath2)" stroke="none"/>
    </g>
    <g font-size="14px" stroke-linecap="butt" transform="matrix(1,0,0,1,-348,68)" text-rendering="geometricPrecision" font-family="'Roboto'" shape-rendering="geometricPrecision" font-weight="bold" stroke-miterlimit="1.45">
      <text x="707.0962" xml:space="preserve" y="12.3589" clip-path="url(#clipPath2)" stroke="none">RoR</text>
    </g>
    <g fill="silver" text-rendering="geometricPrecision" shape-rendering="geometricPrecision" transform="matrix(1,0,0,1,-348,68)" stroke="silver">
      <rect x="913.4704" width="86.8064" height="34.5056" y="-9.679" clip-path="url(#clipPath2)" stroke="none"/>
    </g>
    <g font-size="14px" stroke-linecap="butt" transform="matrix(1,0,0,1,-348,68)" text-rendering="geometricPrecision" font-family="'Roboto'" shape-rendering="geometricPrecision" font-weight="bold" stroke-miterlimit="1.45">
      <text x="926.9595" xml:space="preserve" y="12.3589" clip-path="url(#clipPath2)" stroke="none">Biomass</text>
    </g>
    <g fill="silver" text-rendering="geometricPrecision" shape-rendering="geometricPrecision" transform="matrix(1,0,0,1,-348,68)" stroke="silver">
      <rect x="1077.6704" width="120" height="34.5056" y="515.0304" clip-path="url(#clipPath2)" stroke="none"/>
    </g>
    <g font-size="14px" stroke-linecap="butt" transform="matrix(1,0,0,1,-348,68)" text-rendering="geometricPrecision" font-family="'Roboto'" shape-rendering="geometricPrecision" font-weight="bold" stroke-miterlimit="1.45">
      <text x="1103.5181" xml:space="preserve" y="537.0683" clip-path="url(#clipPath2)" stroke="none">H2 Export</text>
    </g>
    <g fill="silver" text-rendering="geometricPrecision" shape-rendering="geometricPrecision" transform="matrix(1,0,0,1,-348,68)" stroke="silver">
      <rect x="1077.6704" width="120" height="34.5056" y="564.3349" clip-path="url(#clipPath2)" stroke="none"/>
    </g>
    <g font-size="14px" stroke-linecap="butt" transform="matrix(1,0,0,1,-348,68)" text-rendering="geometricPrecision" font-family="'Roboto'" shape-rendering="geometricPrecision" font-weight="bold" stroke-miterlimit="1.45">
      <text x="1098.1621" xml:space="preserve" y="586.3729" clip-path="url(#clipPath2)" stroke="none">CO2 Import</text>
    </g>
    <g fill="silver" text-rendering="geometricPrecision" shape-rendering="geometricPrecision" transform="matrix(1,0,0,1,-348,68)" stroke="silver">
      <rect x="1077.6704" width="120" height="34.5056" y="670.296" clip-path="url(#clipPath2)" stroke="none"/>
    </g>
    <g font-size="14px" stroke-linecap="butt" transform="matrix(1,0,0,1,-348,68)" text-rendering="geometricPrecision" font-family="'Roboto'" shape-rendering="geometricPrecision" font-weight="bold" stroke-miterlimit="1.45">
      <text x="1097.9844" xml:space="preserve" y="692.334" clip-path="url(#clipPath2)" stroke="none">CH4 Import</text>
    </g>
    <g fill="silver" text-rendering="geometricPrecision" shape-rendering="geometricPrecision" transform="matrix(1,0,0,1,-348,68)" stroke="silver">
      <rect x="1077.6704" width="120" height="34.5056" y="443.2517" clip-path="url(#clipPath2)" stroke="none"/>
    </g>
    <g font-size="14px" stroke-linecap="butt" transform="matrix(1,0,0,1,-348,68)" text-rendering="geometricPrecision" font-family="'Roboto'" shape-rendering="geometricPrecision" font-weight="bold" stroke-miterlimit="1.45">
      <text x="1102.9268" xml:space="preserve" y="465.2897" clip-path="url(#clipPath2)" stroke="none">H2 Import</text>
    </g>
    <g fill="rgb(255,102,0)" text-rendering="geometricPrecision" shape-rendering="geometricPrecision" transform="matrix(1,0,0,1,-348,68)" stroke="rgb(255,102,0)">
      <rect x="463.4672" y="326.1096" clip-path="url(#clipPath2)" width="594" rx="4" ry="4" height="7.6752" stroke="none"/>
    </g>
    <g text-rendering="geometricPrecision" stroke-miterlimit="1.45" shape-rendering="geometricPrecision" font-family="'Roboto'" transform="matrix(1,0,0,1,-348,68)" stroke-linecap="butt">
      <text x="365.9631" xml:space="preserve" y="334.0488" clip-path="url(#clipPath2)" stroke="none">Heat, decentral</text>
    </g>
    <g fill="silver" text-rendering="geometricPrecision" shape-rendering="geometricPrecision" transform="matrix(1,0,0,1,-348,68)" stroke="silver">
      <rect x="925.6608" width="131.8064" height="34.5056" y="349.6072" clip-path="url(#clipPath2)" stroke="none"/>
    </g>
    <g font-size="14px" stroke-linecap="butt" transform="matrix(1,0,0,1,-348,68)" text-rendering="geometricPrecision" font-family="'Roboto'" shape-rendering="geometricPrecision" font-weight="bold" stroke-miterlimit="1.45">
      <text x="928.5538" xml:space="preserve" y="371.6451" clip-path="url(#clipPath2)" stroke="none">dec. Heat demand</text>
    </g>
    <g fill="silver" text-rendering="geometricPrecision" shape-rendering="geometricPrecision" transform="matrix(1,0,0,1,-348,68)" stroke="silver">
      <rect x="633.4512" width="100.4064" height="34.5056" y="275.7816" clip-path="url(#clipPath2)" stroke="none"/>
    </g>
    <g font-size="14px" stroke-linecap="butt" transform="matrix(1,0,0,1,-348,68)" text-rendering="geometricPrecision" font-family="'Roboto'" shape-rendering="geometricPrecision" font-weight="bold" stroke-miterlimit="1.45">
      <text x="638.5817" xml:space="preserve" y="297.8195" clip-path="url(#clipPath2)" stroke="none">Domestic HP</text>
    </g>
    <g fill="silver" text-rendering="geometricPrecision" shape-rendering="geometricPrecision" transform="matrix(1,0,0,1,-348,68)" stroke="silver">
      <rect x="559.6608" width="106.8064" height="34.5056" y="363.7848" clip-path="url(#clipPath2)" stroke="none"/>
    </g>
    <g font-size="14px" stroke-linecap="butt" transform="matrix(1,0,0,1,-348,68)" text-rendering="geometricPrecision" font-family="'Roboto'" shape-rendering="geometricPrecision" font-weight="bold" stroke-miterlimit="1.45">
      <text x="596.7261" xml:space="preserve" y="377.6196" clip-path="url(#clipPath2)" stroke="none">Heat</text>
      <text x="563.3565" xml:space="preserve" y="394.0259" clip-path="url(#clipPath2)" stroke="none">Storage, small</text>
    </g>
    <g fill="silver" text-rendering="geometricPrecision" shape-rendering="geometricPrecision" transform="matrix(1,0,0,1,-348,68)" stroke="silver">
      <rect x="701.8023" width="100.4064" height="34.5056" y="363.7848" clip-path="url(#clipPath2)" stroke="none"/>
    </g>
    <g font-size="14px" stroke-linecap="butt" transform="matrix(1,0,0,1,-348,68)" text-rendering="geometricPrecision" font-family="'Roboto'" shape-rendering="geometricPrecision" font-weight="bold" stroke-miterlimit="1.45">
      <text x="709.1031" xml:space="preserve" y="385.8228" clip-path="url(#clipPath2)" stroke="none">Boiler, small</text>
    </g>
    <g fill="silver" text-rendering="geometricPrecision" shape-rendering="geometricPrecision" transform="matrix(1,0,0,1,-348,68)" stroke="silver">
      <rect x="628.8704" width="120" height="34.5056" y="124.7976" clip-path="url(#clipPath2)" stroke="none"/>
    </g>
    <g font-size="14px" stroke-linecap="butt" transform="matrix(1,0,0,1,-348,68)" text-rendering="geometricPrecision" font-family="'Roboto'" shape-rendering="geometricPrecision" font-weight="bold" stroke-miterlimit="1.45">
      <text x="636.326" xml:space="preserve" y="146.8356" clip-path="url(#clipPath2)" stroke="none">Large-scale HP</text>
    </g>
    <g fill="silver" text-rendering="geometricPrecision" shape-rendering="geometricPrecision" transform="matrix(1,0,0,1,-348,68)" stroke="silver">
      <rect x="601.0023" width="100.4064" height="34.5056" y="536.1489" clip-path="url(#clipPath2)" stroke="none"/>
    </g>
    <g font-size="14px" stroke-linecap="butt" transform="matrix(1,0,0,1,-348,68)" text-rendering="geometricPrecision" font-family="'Roboto'" shape-rendering="geometricPrecision" font-weight="bold" stroke-miterlimit="1.45">
      <text x="615.3818" xml:space="preserve" y="558.1868" clip-path="url(#clipPath2)" stroke="none">H2 Cavern</text>
    </g>
  </g>
</svg>
