<?xml version="1.0" encoding="UTF-8"?><svg xmlns="http://www.w3.org/2000/svg" xmlns:xlink="http://www.w3.org/1999/xlink" fill-opacity="1" color-rendering="auto" color-interpolation="auto" text-rendering="auto" stroke="black" stroke-linecap="square" width="871" stroke-miterlimit="10" shape-rendering="auto" stroke-opacity="1" fill="black" stroke-dasharray="none" font-weight="normal" stroke-width="1" height="942" font-family="'Dialog'" font-style="normal" stroke-linejoin="miter" font-size="12px" stroke-dashoffset="0" image-rendering="auto">
  <!--Generated by ySVG 2.5-->
  <defs id="genericDefs"/>
  <g>
    <defs id="defs1">
      <clipPath clipPathUnits="userSpaceOnUse" id="clipPath1">
        <path d="M0 0 L871 0 L871 942 L0 942 L0 0 Z"/>
      </clipPath>
      <clipPath clipPathUnits="userSpaceOnUse" id="clipPath2">
        <path d="M348 -145 L1219 -145 L1219 797 L348 797 L348 -145 Z"/>
      </clipPath>
    </defs>
    <g fill="white" text-rendering="geometricPrecision" shape-rendering="geometricPrecision" transform="translate(-348,145)" stroke="white">
      <rect x="348" width="871" height="942" y="-145" clip-path="url(#clipPath2)" stroke="none"/>
    </g>
    <g stroke-linecap="butt" transform="matrix(1,0,0,1,-348,145)" fill="gray" text-rendering="geometricPrecision" shape-rendering="geometricPrecision" stroke="gray" stroke-miterlimit="1.45">
      <path fill="none" d="M515.0704 -7.1907 L515.0704 403.1128" clip-path="url(#clipPath2)"/>
      <path d="M515.0704 414.1128 L521.0704 402.1128 L509.0704 402.1128 Z" clip-path="url(#clipPath2)" stroke="none"/>
      <path fill="none" d="M838.8704 -41.2467 L838.8704 -26.0444" clip-path="url(#clipPath2)"/>
      <path d="M838.8704 -52.2467 L832.8704 -40.2467 L844.8704 -40.2467 Z" clip-path="url(#clipPath2)" stroke="none"/>
      <path d="M838.8704 -15.0444 L844.8704 -27.0444 L832.8704 -27.0444 Z" clip-path="url(#clipPath2)" stroke="none"/>
      <path fill="none" d="M522.0672 -52.2467 L522.0672 -26.063" clip-path="url(#clipPath2)"/>
      <path d="M522.0672 -15.063 L528.0672 -27.063 L516.0672 -27.063 Z" clip-path="url(#clipPath2)" stroke="none"/>
      <path fill="none" d="M621.4672 -52.2467 L621.4672 -26.0474" clip-path="url(#clipPath2)"/>
      <path d="M621.4672 -15.0474 L627.4672 -27.0474 L615.4672 -27.0474 Z" clip-path="url(#clipPath2)" stroke="none"/>
      <path fill="none" d="M834.8672 29.8285 L834.8672 3.6248" clip-path="url(#clipPath2)"/>
      <path d="M834.8672 -7.3752 L828.8672 4.6248 L840.8672 4.6248 Z" clip-path="url(#clipPath2)" stroke="none"/>
      <path fill="none" d="M1128.5143 -89.1503 L1026.3856 -21.15" clip-path="url(#clipPath2)"/>
      <path d="M1137.6704 -95.2467 L1124.3567 -93.5904 L1131.0072 -83.6019 Z" clip-path="url(#clipPath2)" stroke="none"/>
      <path d="M1017.2296 -15.0536 L1030.5433 -16.71 L1023.8927 -26.6985 Z" clip-path="url(#clipPath2)" stroke="none"/>
      <path fill="none" d="M955.238 16.6259 L954.7527 3.6455" clip-path="url(#clipPath2)"/>
      <path d="M954.3417 -7.3468 L948.7943 4.869 L960.7859 4.4206 Z" clip-path="url(#clipPath2)" stroke="none"/>
      <path fill="none" d="M1079.1321 19.6609 L1007.264 -6.0733" clip-path="url(#clipPath2)"/>
      <path d="M1089.4882 23.3691 L1080.2133 13.675 L1076.168 24.9725 Z" clip-path="url(#clipPath2)" stroke="none"/>
      <path fill="none" d="M986.456 72.9448 L986.456 3.6467" clip-path="url(#clipPath2)"/>
      <path d="M986.456 -7.3533 L980.456 4.6467 L992.456 4.6467 Z" clip-path="url(#clipPath2)" stroke="none"/>
      <path fill="none" d="M720.8672 -52.2467 L720.8672 -26.0657" clip-path="url(#clipPath2)"/>
      <path d="M720.8672 -15.0657 L726.8672 -27.0657 L714.8672 -27.0657 Z" clip-path="url(#clipPath2)" stroke="none"/>
      <path fill="none" d="M956.8736 -52.2467 L956.8736 -26.0657" clip-path="url(#clipPath2)"/>
      <path d="M956.8736 -15.0657 L962.8736 -27.0657 L950.8736 -27.0657 Z" clip-path="url(#clipPath2)" stroke="none"/>
      <path fill="none" d="M774.68 81.1341 L774.68 3.6312" clip-path="url(#clipPath2)"/>
      <path d="M774.68 -7.3688 L768.68 4.6312 L780.68 4.6312 Z" clip-path="url(#clipPath2)" stroke="none"/>
      <path fill="none" d="M529.3771 684.8016 L529.3771 710.4578" clip-path="url(#clipPath2)"/>
      <path d="M529.3771 721.4578 L535.3771 709.4578 L523.3771 709.4578 Z" clip-path="url(#clipPath2)" stroke="none"/>
      <path fill="none" d="M1067.0514 744.5405 L1010.1512 729.1624" clip-path="url(#clipPath2)"/>
      <path d="M1077.6704 747.4105 L1067.6515 738.4874 L1064.5206 750.0718 Z" clip-path="url(#clipPath2)" stroke="none"/>
      <path fill="none" d="M986.456 118.4504 L986.456 721.4688" clip-path="url(#clipPath2)"/>
      <path d="M986.456 107.4504 L980.456 119.4504 L992.456 119.4504 Z" clip-path="url(#clipPath2)" stroke="none"/>
      <path fill="none" d="M1077.6704 703.8619 L1020.3084 718.7265" clip-path="url(#clipPath2)"/>
      <path d="M1009.6602 721.4859 L1022.7816 724.2838 L1019.7713 712.6675 Z" clip-path="url(#clipPath2)" stroke="none"/>
      <path fill="none" d="M515.0704 448.6184 L515.0704 481.5535" clip-path="url(#clipPath2)"/>
      <path d="M515.0704 492.5535 L521.0704 480.5535 L509.0704 480.5535 Z" clip-path="url(#clipPath2)" stroke="none"/>
      <path fill="none" d="M954.9092 62.1613 L953.5421 492.5419" clip-path="url(#clipPath2)"/>
      <path d="M954.9442 51.1613 L948.906 63.1422 L960.9059 63.1803 Z" clip-path="url(#clipPath2)" stroke="none"/>
      <path fill="none" d="M1066.9409 515.6325 L998.7664 500.2263" clip-path="url(#clipPath2)"/>
      <path d="M1077.6704 518.0572 L1067.2881 509.5597 L1064.6431 521.2645 Z" clip-path="url(#clipPath2)" stroke="none"/>
      <path fill="none" d="M1077.6704 474.7127 L1009.4579 490.1083" clip-path="url(#clipPath2)"/>
      <path d="M998.7278 492.5301 L1011.7544 495.7409 L1009.1124 484.0353 Z" clip-path="url(#clipPath2)" stroke="none"/>
      <path fill="none" d="M651.0736 159.7499 L651.0736 175.1539" clip-path="url(#clipPath2)"/>
      <path d="M651.0736 186.1539 L657.0736 174.1539 L645.0736 174.1539 Z" clip-path="url(#clipPath2)" stroke="none"/>
      <path fill="none" d="M608.6544 212.8298 L608.6544 204.8672" clip-path="url(#clipPath2)"/>
      <path d="M608.6544 223.8298 L614.6544 211.8298 L602.6544 211.8298 Z" clip-path="url(#clipPath2)" stroke="none"/>
      <path d="M608.6544 193.8672 L602.6544 205.8672 L614.6544 205.8672 Z" clip-path="url(#clipPath2)" stroke="none"/>
      <path fill="none" d="M727.0608 223.8298 L727.0608 205" clip-path="url(#clipPath2)"/>
      <path d="M727.0608 194 L721.0608 206 L733.0608 206 Z" clip-path="url(#clipPath2)" stroke="none"/>
      <path fill="none" d="M1061.0646 210.3455 L991.564 193.8487" clip-path="url(#clipPath2)"/>
      <path d="M1071.7672 212.8859 L1061.4773 204.2768 L1058.7059 215.9524 Z" clip-path="url(#clipPath2)" stroke="none"/>
      <path fill="none" d="M484.74 159.7411 L484.74 175.1313" clip-path="url(#clipPath2)"/>
      <path d="M484.74 186.1313 L490.74 174.1313 L478.74 174.1313 Z" clip-path="url(#clipPath2)" stroke="none"/>
      <path fill="none" d="M760.4672 115.6159 L760.4672 175.1789" clip-path="url(#clipPath2)"/>
      <path d="M760.4672 186.1789 L766.4672 174.1789 L754.4672 174.1789 Z" clip-path="url(#clipPath2)" stroke="none"/>
      <path fill="none" d="M853.3221 64.3384 L853.3221 175.1438" clip-path="url(#clipPath2)"/>
      <path d="M853.3221 186.1438 L859.3221 174.1438 L847.3221 174.1438 Z" clip-path="url(#clipPath2)" stroke="none"/>
      <path fill="none" d="M834.8672 492.5598 L834.8672 75.3341" clip-path="url(#clipPath2)"/>
      <path d="M834.8672 64.3341 L828.8672 76.3341 L840.8672 76.3341 Z" clip-path="url(#clipPath2)" stroke="none"/>
      <path fill="none" d="M651.0736 -7.357 L651.0736 114.2443" clip-path="url(#clipPath2)"/>
      <path d="M651.0736 125.2443 L657.0736 113.2443 L645.0736 113.2443 Z" clip-path="url(#clipPath2)" stroke="none"/>
      <path fill="none" d="M721.4608 721.4734 L721.4608 269.3394" clip-path="url(#clipPath2)"/>
      <path d="M721.4608 258.3394 L715.4608 270.3394 L727.4608 270.3394 Z" clip-path="url(#clipPath2)" stroke="none"/>
      <path fill="none" d="M529.3771 500.2542 L529.3771 639.2593" clip-path="url(#clipPath2)"/>
      <path d="M529.3771 650.2593 L535.3771 638.2593 L523.3771 638.2593 Z" clip-path="url(#clipPath2)" stroke="none"/>
      <path fill="none" d="M495.338 622.3383 L495.338 639.2969" clip-path="url(#clipPath2)"/>
      <path d="M495.338 650.2969 L501.338 638.2969 L489.338 638.2969 Z" clip-path="url(#clipPath2)" stroke="none"/>
      <path fill="none" d="M1077.6704 596.2413 L1009.4415 612.1234" clip-path="url(#clipPath2)"/>
      <path d="M998.7279 614.6172 L1011.7757 617.7404 L1009.0552 606.0529 Z" clip-path="url(#clipPath2)" stroke="none"/>
      <path fill="none" d="M1061.0387 349.5104 L991.6031 333.7901" clip-path="url(#clipPath2)"/>
      <path d="M1071.7672 351.9394 L1061.3883 343.4377 L1058.7385 355.1415 Z" clip-path="url(#clipPath2)" stroke="none"/>
      <path fill="none" d="M613.064 352.7848 L613.064 344.8203" clip-path="url(#clipPath2)"/>
      <path d="M613.064 363.7848 L619.064 351.7848 L607.064 351.7848 Z" clip-path="url(#clipPath2)" stroke="none"/>
      <path d="M613.064 333.8203 L607.064 345.8203 L619.064 345.8203 Z" clip-path="url(#clipPath2)" stroke="none"/>
      <path fill="none" d="M732.8055 363.7848 L732.8055 344.8105" clip-path="url(#clipPath2)"/>
      <path d="M732.8055 333.8105 L726.8055 345.8105 L738.8055 345.8105 Z" clip-path="url(#clipPath2)" stroke="none"/>
      <path fill="none" d="M503.94 304.6917 L503.94 315.0894" clip-path="url(#clipPath2)"/>
      <path d="M503.94 326.0894 L509.94 314.0894 L497.94 314.0894 Z" clip-path="url(#clipPath2)" stroke="none"/>
      <path fill="none" d="M503.516 -7.3786 L503.516 259.2107" clip-path="url(#clipPath2)"/>
      <path d="M503.516 270.2107 L509.516 258.2107 L497.516 258.2107 Z" clip-path="url(#clipPath2)" stroke="none"/>
      <path fill="none" d="M741.2672 721.4813 L741.2672 409.3266" clip-path="url(#clipPath2)"/>
      <path d="M741.2672 398.3266 L735.2672 410.3266 L747.2672 410.3266 Z" clip-path="url(#clipPath2)" stroke="none"/>
      <path fill="none" d="M488.7253 -7.353 L488.7253 114.2364" clip-path="url(#clipPath2)"/>
      <path d="M488.7253 125.2364 L494.7253 113.2364 L482.7253 113.2364 Z" clip-path="url(#clipPath2)" stroke="none"/>
      <path fill="none" d="M651.2055 511.255 L651.2055 525.1489" clip-path="url(#clipPath2)"/>
      <path d="M651.2055 500.255 L645.2055 512.255 L657.2055 512.255 Z" clip-path="url(#clipPath2)" stroke="none"/>
      <path d="M651.2055 536.1489 L657.2055 524.1489 L645.2055 524.1489 Z" clip-path="url(#clipPath2)" stroke="none"/>
      <path fill="none" d="M788.5 719.5 L788.5 126.6475" clip-path="url(#clipPath2)"/>
      <path d="M788.5 115.6475 L782.5 127.6475 L794.5 127.6475 Z" clip-path="url(#clipPath2)" stroke="none"/>
    </g>
    <g fill="silver" text-rendering="geometricPrecision" shape-rendering="geometricPrecision" transform="matrix(1,0,0,1,-348,145)" stroke="silver">
      <rect x="471.6672" width="86.8064" height="34.5056" y="414.1128" clip-path="url(#clipPath2)" stroke="none"/>
    </g>
    <g font-size="14px" stroke-linecap="butt" transform="matrix(1,0,0,1,-348,145)" text-rendering="geometricPrecision" font-family="'Roboto'" shape-rendering="geometricPrecision" font-weight="bold" stroke-miterlimit="1.45">
      <text x="474.9264" xml:space="preserve" y="436.1508" clip-path="url(#clipPath2)" stroke="none">Elektrolysis</text>
    </g>
    <g fill="rgb(51,102,255)" text-rendering="geometricPrecision" shape-rendering="geometricPrecision" transform="matrix(1,0,0,1,-348,145)" stroke="rgb(51,102,255)">
      <rect x="463.4672" y="-15.0467" clip-path="url(#clipPath2)" width="594" rx="4" ry="4" height="7.6752" stroke="none"/>
    </g>
    <g text-rendering="geometricPrecision" stroke-miterlimit="1.45" shape-rendering="geometricPrecision" font-family="'Roboto'" transform="matrix(1,0,0,1,-348,145)" stroke-linecap="butt">
      <text x="394.3986" xml:space="preserve" y="-7.1076" clip-path="url(#clipPath2)" stroke="none">Electricity</text>
    </g>
    <g fill="rgb(153,204,0)" text-rendering="geometricPrecision" shape-rendering="geometricPrecision" transform="matrix(1,0,0,1,-348,145)" stroke="rgb(153,204,0)">
      <rect x="463.4672" y="721.496" clip-path="url(#clipPath2)" width="594" rx="4" ry="4" height="7.6752" stroke="none"/>
    </g>
    <g text-rendering="geometricPrecision" stroke-miterlimit="1.45" shape-rendering="geometricPrecision" font-family="'Roboto'" transform="matrix(1,0,0,1,-348,145)" stroke-linecap="butt">
      <text x="423.3498" xml:space="preserve" y="729.4352" clip-path="url(#clipPath2)" stroke="none">CH4</text>
    </g>
    <g fill="rgb(51,204,204)" text-rendering="geometricPrecision" shape-rendering="geometricPrecision" transform="matrix(1,0,0,1,-348,145)" stroke="rgb(51,204,204)">
      <rect x="463.4672" y="492.5562" clip-path="url(#clipPath2)" width="594" rx="4" ry="4" height="7.6752" stroke="none"/>
    </g>
    <g text-rendering="geometricPrecision" stroke-miterlimit="1.45" shape-rendering="geometricPrecision" font-family="'Roboto'" transform="matrix(1,0,0,1,-348,145)" stroke-linecap="butt">
      <text x="431.1603" xml:space="preserve" y="500.4954" clip-path="url(#clipPath2)" stroke="none">H2</text>
    </g>
    <g fill="rgb(255,102,0)" text-rendering="geometricPrecision" shape-rendering="geometricPrecision" transform="matrix(1,0,0,1,-348,145)" stroke="rgb(255,102,0)">
      <rect x="463.4672" y="186.1546" clip-path="url(#clipPath2)" width="594" rx="4" ry="4" height="7.6752" stroke="none"/>
    </g>
    <g text-rendering="geometricPrecision" stroke-miterlimit="1.45" shape-rendering="geometricPrecision" font-family="'Roboto'" transform="matrix(1,0,0,1,-348,145)" stroke-linecap="butt">
      <text x="379.0881" xml:space="preserve" y="194.0937" clip-path="url(#clipPath2)" stroke="none">Heat, central</text>
    </g>
    <g fill="silver" text-rendering="geometricPrecision" shape-rendering="geometricPrecision" transform="matrix(1,0,0,1,-348,145)" stroke="silver">
      <rect x="791.464" width="86.8064" height="34.5056" y="29.8285" clip-path="url(#clipPath2)" stroke="none"/>
    </g>
    <g font-size="14px" stroke-linecap="butt" transform="matrix(1,0,0,1,-348,145)" text-rendering="geometricPrecision" font-family="'Roboto'" shape-rendering="geometricPrecision" font-weight="bold" stroke-miterlimit="1.45">
      <text x="807.9336" xml:space="preserve" y="51.8664" clip-path="url(#clipPath2)" stroke="none">H2 CHP</text>
    </g>
    <g fill="silver" text-rendering="geometricPrecision" shape-rendering="geometricPrecision" transform="matrix(1,0,0,1,-348,145)" stroke="silver">
      <rect x="600.8704" width="100.4064" height="34.5056" y="125.2443" clip-path="url(#clipPath2)" stroke="none"/>
    </g>
    <g font-size="14px" stroke-linecap="butt" transform="matrix(1,0,0,1,-348,145)" text-rendering="geometricPrecision" font-family="'Roboto'" shape-rendering="geometricPrecision" font-weight="bold" stroke-miterlimit="1.45">
      <text x="623.0292" xml:space="preserve" y="147.2823" clip-path="url(#clipPath2)" stroke="none">res. PtH</text>
    </g>
    <g fill="silver" text-rendering="geometricPrecision" shape-rendering="geometricPrecision" transform="matrix(1,0,0,1,-348,145)" stroke="silver">
      <rect x="780.4672" width="116.8064" height="34.5056" y="-86.7523" clip-path="url(#clipPath2)" stroke="none"/>
    </g>
    <g font-size="14px" stroke-linecap="butt" transform="matrix(1,0,0,1,-348,145)" text-rendering="geometricPrecision" font-family="'Roboto'" shape-rendering="geometricPrecision" font-weight="bold" stroke-miterlimit="1.45">
      <text x="785.7723" xml:space="preserve" y="-64.7144" clip-path="url(#clipPath2)" stroke="none">Li-Ion-Batteries</text>
    </g>
    <g fill="silver" text-rendering="geometricPrecision" shape-rendering="geometricPrecision" transform="matrix(1,0,0,1,-348,145)" stroke="silver">
      <rect x="558.4512" width="100.4064" height="34.5056" y="223.8298" clip-path="url(#clipPath2)" stroke="none"/>
    </g>
    <g font-size="14px" stroke-linecap="butt" transform="matrix(1,0,0,1,-348,145)" text-rendering="geometricPrecision" font-family="'Roboto'" shape-rendering="geometricPrecision" font-weight="bold" stroke-miterlimit="1.45">
      <text x="592.3165" xml:space="preserve" y="237.6646" clip-path="url(#clipPath2)" stroke="none">Heat</text>
      <text x="560.3859" xml:space="preserve" y="254.0708" clip-path="url(#clipPath2)" stroke="none">Storage, large</text>
    </g>
    <g fill="silver" text-rendering="geometricPrecision" shape-rendering="geometricPrecision" transform="matrix(1,0,0,1,-348,145)" stroke="silver">
      <rect x="676.8576" width="100.4064" height="34.5056" y="223.8298" clip-path="url(#clipPath2)" stroke="none"/>
    </g>
    <g font-size="14px" stroke-linecap="butt" transform="matrix(1,0,0,1,-348,145)" text-rendering="geometricPrecision" font-family="'Roboto'" shape-rendering="geometricPrecision" font-weight="bold" stroke-miterlimit="1.45">
      <text x="683.01" xml:space="preserve" y="245.8677" clip-path="url(#clipPath2)" stroke="none">Boiler.  large</text>
    </g>
    <g fill="silver" text-rendering="geometricPrecision" shape-rendering="geometricPrecision" transform="matrix(1,0,0,1,-348,145)" stroke="silver">
      <rect x="478.664" width="86.8064" height="34.5056" y="-86.7523" clip-path="url(#clipPath2)" stroke="none"/>
    </g>
    <g font-size="14px" stroke-linecap="butt" transform="matrix(1,0,0,1,-348,145)" text-rendering="geometricPrecision" font-family="'Roboto'" shape-rendering="geometricPrecision" font-weight="bold" stroke-miterlimit="1.45">
      <text x="504.803" xml:space="preserve" y="-64.7144" clip-path="url(#clipPath2)" stroke="none">Wind</text>
    </g>
    <g fill="silver" text-rendering="geometricPrecision" shape-rendering="geometricPrecision" transform="matrix(1,0,0,1,-348,145)" stroke="silver">
      <rect x="578.064" width="86.8064" height="34.5056" y="-86.7523" clip-path="url(#clipPath2)" stroke="none"/>
    </g>
    <g font-size="14px" stroke-linecap="butt" transform="matrix(1,0,0,1,-348,145)" text-rendering="geometricPrecision" font-family="'Roboto'" shape-rendering="geometricPrecision" font-weight="bold" stroke-miterlimit="1.45">
      <text x="611.8251" xml:space="preserve" y="-64.7144" clip-path="url(#clipPath2)" stroke="none">PV</text>
    </g>
    <g fill="silver" text-rendering="geometricPrecision" shape-rendering="geometricPrecision" transform="matrix(1,0,0,1,-348,145)" stroke="silver">
      <rect x="470.9739" width="116.8064" height="34.5056" y="650.296" clip-path="url(#clipPath2)" stroke="none"/>
    </g>
    <g font-size="14px" stroke-linecap="butt" transform="matrix(1,0,0,1,-348,145)" text-rendering="geometricPrecision" font-family="'Roboto'" shape-rendering="geometricPrecision" font-weight="bold" stroke-miterlimit="1.45">
      <text x="479.7687" xml:space="preserve" y="672.334" clip-path="url(#clipPath2)" stroke="none">Methanisation</text>
    </g>
    <g fill="gray" text-rendering="geometricPrecision" shape-rendering="geometricPrecision" transform="matrix(1,0,0,1,-348,145)" stroke="gray">
      <rect x="463.4672" y="614.64" clip-path="url(#clipPath2)" width="594" rx="4" ry="4" height="7.6752" stroke="none"/>
    </g>
    <g text-rendering="geometricPrecision" stroke-miterlimit="1.45" shape-rendering="geometricPrecision" font-family="'Roboto'" transform="matrix(1,0,0,1,-348,145)" stroke-linecap="butt">
      <text x="423.6545" xml:space="preserve" y="622.5792" clip-path="url(#clipPath2)" stroke="none">CO2</text>
    </g>
    <g fill="silver" text-rendering="geometricPrecision" shape-rendering="geometricPrecision" transform="matrix(1,0,0,1,-348,145)" stroke="silver">
      <rect x="1077.6704" width="120" height="34.5056" y="-129.7523" clip-path="url(#clipPath2)" stroke="none"/>
    </g>
    <g font-size="14px" stroke-linecap="butt" transform="matrix(1,0,0,1,-348,145)" text-rendering="geometricPrecision" font-family="'Roboto'" shape-rendering="geometricPrecision" font-weight="bold" stroke-miterlimit="1.45">
      <text x="1090.605" xml:space="preserve" y="-107.7144" clip-path="url(#clipPath2)" stroke="none">Transmission</text>
    </g>
    <g fill="silver" text-rendering="geometricPrecision" shape-rendering="geometricPrecision" transform="matrix(1,0,0,1,-348,145)" stroke="silver">
      <rect x="927.4448" width="118.0224" height="34.5056" y="16.6285" clip-path="url(#clipPath2)" stroke="none"/>
    </g>
    <g font-size="14px" stroke-linecap="butt" transform="matrix(1,0,0,1,-348,145)" text-rendering="geometricPrecision" font-family="'Roboto'" shape-rendering="geometricPrecision" font-weight="bold" stroke-miterlimit="1.45">
      <text x="935.2548" xml:space="preserve" y="38.6664" clip-path="url(#clipPath2)" stroke="none">H2-Powerplant</text>
    </g>
    <g fill="silver" text-rendering="geometricPrecision" shape-rendering="geometricPrecision" transform="matrix(1,0,0,1,-348,145)" stroke="silver">
      <rect x="1077.6704" width="125.9032" height="34.5056" y="747.1712" clip-path="url(#clipPath2)" stroke="none"/>
    </g>
    <g font-size="14px" stroke-linecap="butt" transform="matrix(1,0,0,1,-348,145)" text-rendering="geometricPrecision" font-family="'Roboto'" shape-rendering="geometricPrecision" font-weight="bold" stroke-miterlimit="1.45">
      <text x="1099.4081" xml:space="preserve" y="769.2092" clip-path="url(#clipPath2)" stroke="none">CH4 Export </text>
    </g>
    <g fill="silver" text-rendering="geometricPrecision" shape-rendering="geometricPrecision" transform="matrix(1,0,0,1,-348,145)" stroke="silver">
      <rect x="1071.7672" width="131.8064" height="34.5056" y="211.276" clip-path="url(#clipPath2)" stroke="none"/>
    </g>
    <g font-size="14px" stroke-linecap="butt" transform="matrix(1,0,0,1,-348,145)" text-rendering="geometricPrecision" font-family="'Roboto'" shape-rendering="geometricPrecision" font-weight="bold" stroke-miterlimit="1.45">
      <text x="1074.9883" xml:space="preserve" y="233.3139" clip-path="url(#clipPath2)" stroke="none">Cen. heat demand</text>
    </g>
    <g fill="silver" text-rendering="geometricPrecision" shape-rendering="geometricPrecision" transform="matrix(1,0,0,1,-348,145)" stroke="silver">
      <rect x="1071.7672" width="131.8064" height="34.5056" y="23.3691" clip-path="url(#clipPath2)" stroke="none"/>
    </g>
    <g font-size="14px" stroke-linecap="butt" transform="matrix(1,0,0,1,-348,145)" text-rendering="geometricPrecision" font-family="'Roboto'" shape-rendering="geometricPrecision" font-weight="bold" stroke-miterlimit="1.45">
      <text x="1099.1465" xml:space="preserve" y="45.4071" clip-path="url(#clipPath2)" stroke="none">El. demand</text>
    </g>
    <g fill="silver" text-rendering="geometricPrecision" shape-rendering="geometricPrecision" transform="matrix(1,0,0,1,-348,145)" stroke="silver">
      <rect x="927.4448" width="118.0224" height="34.5056" y="72.9448" clip-path="url(#clipPath2)" stroke="none"/>
    </g>
    <g font-size="14px" stroke-linecap="butt" transform="matrix(1,0,0,1,-348,145)" text-rendering="geometricPrecision" font-family="'Roboto'" shape-rendering="geometricPrecision" font-weight="bold" stroke-miterlimit="1.45">
      <text x="930.5107" xml:space="preserve" y="94.9828" clip-path="url(#clipPath2)" stroke="none">CH4 Powerplant</text>
    </g>
    <g fill="silver" text-rendering="geometricPrecision" shape-rendering="geometricPrecision" transform="matrix(1,0,0,1,-348,145)" stroke="silver">
      <rect x="677.464" width="86.8064" height="34.5056" y="-86.7523" clip-path="url(#clipPath2)" stroke="none"/>
    </g>
    <g font-size="14px" stroke-linecap="butt" transform="matrix(1,0,0,1,-348,145)" text-rendering="geometricPrecision" font-family="'Roboto'" shape-rendering="geometricPrecision" font-weight="bold" stroke-miterlimit="1.45">
      <text x="707.0962" xml:space="preserve" y="-64.7144" clip-path="url(#clipPath2)" stroke="none">RoR</text>
    </g>
    <g fill="silver" text-rendering="geometricPrecision" shape-rendering="geometricPrecision" transform="matrix(1,0,0,1,-348,145)" stroke="silver">
      <rect x="913.4704" width="86.8064" height="34.5056" y="-86.7523" clip-path="url(#clipPath2)" stroke="none"/>
    </g>
    <g font-size="14px" stroke-linecap="butt" transform="matrix(1,0,0,1,-348,145)" text-rendering="geometricPrecision" font-family="'Roboto'" shape-rendering="geometricPrecision" font-weight="bold" stroke-miterlimit="1.45">
      <text x="926.9595" xml:space="preserve" y="-64.7144" clip-path="url(#clipPath2)" stroke="none">Biomass</text>
    </g>
    <g fill="silver" text-rendering="geometricPrecision" shape-rendering="geometricPrecision" transform="matrix(1,0,0,1,-348,145)" stroke="silver">
      <rect x="1077.6704" width="125.9032" height="34.5056" y="515.0304" clip-path="url(#clipPath2)" stroke="none"/>
    </g>
    <g font-size="14px" stroke-linecap="butt" transform="matrix(1,0,0,1,-348,145)" text-rendering="geometricPrecision" font-family="'Roboto'" shape-rendering="geometricPrecision" font-weight="bold" stroke-miterlimit="1.45">
      <text x="1106.4696" xml:space="preserve" y="537.0683" clip-path="url(#clipPath2)" stroke="none">H2 Export</text>
    </g>
    <g fill="silver" text-rendering="geometricPrecision" shape-rendering="geometricPrecision" transform="matrix(1,0,0,1,-348,145)" stroke="silver">
      <rect x="1077.6704" width="125.9032" height="34.5056" y="564.3349" clip-path="url(#clipPath2)" stroke="none"/>
    </g>
    <g font-size="14px" stroke-linecap="butt" transform="matrix(1,0,0,1,-348,145)" text-rendering="geometricPrecision" font-family="'Roboto'" shape-rendering="geometricPrecision" font-weight="bold" stroke-miterlimit="1.45">
      <text x="1101.1136" xml:space="preserve" y="586.3729" clip-path="url(#clipPath2)" stroke="none">CO2 Import</text>
    </g>
    <g fill="silver" text-rendering="geometricPrecision" shape-rendering="geometricPrecision" transform="matrix(1,0,0,1,-348,145)" stroke="silver">
      <rect x="1077.6704" width="125.9032" height="34.5056" y="670.296" clip-path="url(#clipPath2)" stroke="none"/>
    </g>
    <g font-size="14px" stroke-linecap="butt" transform="matrix(1,0,0,1,-348,145)" text-rendering="geometricPrecision" font-family="'Roboto'" shape-rendering="geometricPrecision" font-weight="bold" stroke-miterlimit="1.45">
      <text x="1100.9359" xml:space="preserve" y="692.334" clip-path="url(#clipPath2)" stroke="none">CH4 Import</text>
    </g>
    <g fill="silver" text-rendering="geometricPrecision" shape-rendering="geometricPrecision" transform="matrix(1,0,0,1,-348,145)" stroke="silver">
      <rect x="1077.6704" width="125.9032" height="34.5056" y="443.2517" clip-path="url(#clipPath2)" stroke="none"/>
    </g>
    <g font-size="14px" stroke-linecap="butt" transform="matrix(1,0,0,1,-348,145)" text-rendering="geometricPrecision" font-family="'Roboto'" shape-rendering="geometricPrecision" font-weight="bold" stroke-miterlimit="1.45">
      <text x="1105.8783" xml:space="preserve" y="465.2897" clip-path="url(#clipPath2)" stroke="none">H2 Import</text>
    </g>
    <g fill="rgb(255,102,0)" text-rendering="geometricPrecision" shape-rendering="geometricPrecision" transform="matrix(1,0,0,1,-348,145)" stroke="rgb(255,102,0)">
      <rect x="463.4672" y="326.1096" clip-path="url(#clipPath2)" width="594" rx="4" ry="4" height="7.6752" stroke="none"/>
    </g>
    <g text-rendering="geometricPrecision" stroke-miterlimit="1.45" shape-rendering="geometricPrecision" font-family="'Roboto'" transform="matrix(1,0,0,1,-348,145)" stroke-linecap="butt">
      <text x="365.9631" xml:space="preserve" y="334.0488" clip-path="url(#clipPath2)" stroke="none">Heat, decentral</text>
    </g>
    <g fill="silver" text-rendering="geometricPrecision" shape-rendering="geometricPrecision" transform="matrix(1,0,0,1,-348,145)" stroke="silver">
      <rect x="1071.7672" width="131.8064" height="34.5056" y="349.6072" clip-path="url(#clipPath2)" stroke="none"/>
    </g>
    <g font-size="14px" stroke-linecap="butt" transform="matrix(1,0,0,1,-348,145)" text-rendering="geometricPrecision" font-family="'Roboto'" shape-rendering="geometricPrecision" font-weight="bold" stroke-miterlimit="1.45">
      <text x="1074.6602" xml:space="preserve" y="371.6451" clip-path="url(#clipPath2)" stroke="none">dec. Heat demand</text>
    </g>
    <g fill="silver" text-rendering="geometricPrecision" shape-rendering="geometricPrecision" transform="matrix(1,0,0,1,-348,145)" stroke="silver">
      <rect x="463.4672" width="100.4064" height="34.5056" y="270.1816" clip-path="url(#clipPath2)" stroke="none"/>
    </g>
    <g font-size="14px" stroke-linecap="butt" transform="matrix(1,0,0,1,-348,145)" text-rendering="geometricPrecision" font-family="'Roboto'" shape-rendering="geometricPrecision" font-weight="bold" stroke-miterlimit="1.45">
      <text x="468.5977" xml:space="preserve" y="292.2195" clip-path="url(#clipPath2)" stroke="none">Domestic HP</text>
    </g>
    <g fill="silver" text-rendering="geometricPrecision" shape-rendering="geometricPrecision" transform="matrix(1,0,0,1,-348,145)" stroke="silver">
      <rect x="559.6608" width="106.8064" height="34.5056" y="363.7848" clip-path="url(#clipPath2)" stroke="none"/>
    </g>
    <g font-size="14px" stroke-linecap="butt" transform="matrix(1,0,0,1,-348,145)" text-rendering="geometricPrecision" font-family="'Roboto'" shape-rendering="geometricPrecision" font-weight="bold" stroke-miterlimit="1.45">
      <text x="596.7261" xml:space="preserve" y="377.6196" clip-path="url(#clipPath2)" stroke="none">Heat</text>
      <text x="563.3565" xml:space="preserve" y="394.0259" clip-path="url(#clipPath2)" stroke="none">Storage, small</text>
    </g>
    <g fill="silver" text-rendering="geometricPrecision" shape-rendering="geometricPrecision" transform="matrix(1,0,0,1,-348,145)" stroke="silver">
      <rect x="682.6023" width="100.4064" height="34.5056" y="363.7848" clip-path="url(#clipPath2)" stroke="none"/>
    </g>
    <g font-size="14px" stroke-linecap="butt" transform="matrix(1,0,0,1,-348,145)" text-rendering="geometricPrecision" font-family="'Roboto'" shape-rendering="geometricPrecision" font-weight="bold" stroke-miterlimit="1.45">
      <text x="689.9031" xml:space="preserve" y="385.8228" clip-path="url(#clipPath2)" stroke="none">Boiler, small</text>
    </g>
    <g fill="silver" text-rendering="geometricPrecision" shape-rendering="geometricPrecision" transform="matrix(1,0,0,1,-348,145)" stroke="silver">
      <rect x="463.4672" width="120" height="34.5056" y="125.2443" clip-path="url(#clipPath2)" stroke="none"/>
    </g>
    <g font-size="14px" stroke-linecap="butt" transform="matrix(1,0,0,1,-348,145)" text-rendering="geometricPrecision" font-family="'Roboto'" shape-rendering="geometricPrecision" font-weight="bold" stroke-miterlimit="1.45">
      <text x="470.9228" xml:space="preserve" y="147.2823" clip-path="url(#clipPath2)" stroke="none">Large-scale HP</text>
    </g>
    <g fill="silver" text-rendering="geometricPrecision" shape-rendering="geometricPrecision" transform="matrix(1,0,0,1,-348,145)" stroke="silver">
      <rect x="601.0023" width="100.4064" height="34.5056" y="536.1489" clip-path="url(#clipPath2)" stroke="none"/>
    </g>
    <g font-size="14px" stroke-linecap="butt" transform="matrix(1,0,0,1,-348,145)" text-rendering="geometricPrecision" font-family="'Roboto'" shape-rendering="geometricPrecision" font-weight="bold" stroke-miterlimit="1.45">
      <text x="615.3818" xml:space="preserve" y="558.1868" clip-path="url(#clipPath2)" stroke="none">H2 Cavern</text>
    </g>
    <g fill="silver" text-rendering="geometricPrecision" shape-rendering="geometricPrecision" transform="matrix(1,0,0,1,-348,145)" stroke="silver">
      <rect x="731.2768" width="86.8064" height="34.5056" y="81.1341" clip-path="url(#clipPath2)" stroke="none"/>
    </g>
    <g font-size="14px" stroke-linecap="butt" transform="matrix(1,0,0,1,-348,145)" text-rendering="geometricPrecision" font-family="'Roboto'" shape-rendering="geometricPrecision" font-weight="bold" stroke-miterlimit="1.45">
      <text x="742.804" xml:space="preserve" y="103.172" clip-path="url(#clipPath2)" stroke="none">CH4 CHP</text>
    </g>
  </g>
</svg>
