<?xml version="1.0" encoding="UTF-8" standalone="no"?>
<!DOCTYPE svg PUBLIC "-//W3C//DTD SVG 1.1//EN"
 "http://www.w3.org/Graphics/SVG/1.1/DTD/svg11.dtd">
<!-- Generated by graphviz version 2.40.1 (20161225.0304)
 -->
<!-- Title: snakemake_dag Pages: 1 -->
<svg width="731pt" height="404pt"
 viewBox="0.00 0.00 730.50 404.00" xmlns="http://www.w3.org/2000/svg" xmlns:xlink="http://www.w3.org/1999/xlink">
<g id="graph0" class="graph" transform="scale(1 1) rotate(0) translate(4 400)">
<title>snakemake_dag</title>
<polygon fill="#ffffff" stroke="transparent" points="-4,4 -4,-400 726.5,-400 726.5,4 -4,4"/>
<!-- 0 -->
<g id="node1" class="node">
<title>0</title>
<path fill="none" stroke="#80d856" stroke-width="2" d="M316,-36C316,-36 286,-36 286,-36 280,-36 274,-30 274,-24 274,-24 274,-12 274,-12 274,-6 280,0 286,0 286,0 316,0 316,0 322,0 328,-6 328,-12 328,-12 328,-24 328,-24 328,-30 322,-36 316,-36"/>
<text text-anchor="middle" x="301" y="-15.5" font-family="sans" font-size="10.00" fill="#000000">report</text>
</g>
<!-- 1 -->
<g id="node2" class="node">
<title>1</title>
<path fill="none" stroke="#56a9d8" stroke-width="2" d="M287,-108C287,-108 203,-108 203,-108 197,-108 191,-102 191,-96 191,-96 191,-84 191,-84 191,-78 197,-72 203,-72 203,-72 287,-72 287,-72 293,-72 299,-78 299,-84 299,-84 299,-96 299,-96 299,-102 293,-108 287,-108"/>
<text text-anchor="middle" x="245" y="-87.5" font-family="sans" font-size="10.00" fill="#000000">plot_scalar_results</text>
</g>
<!-- 1&#45;&gt;0 -->
<g id="edge1" class="edge">
<title>1&#45;&gt;0</title>
<path fill="none" stroke="#c0c0c0" stroke-width="2" d="M259.1312,-71.8314C265.5811,-63.5386 273.3445,-53.557 280.4252,-44.4533"/>
<polygon fill="#c0c0c0" stroke="#c0c0c0" stroke-width="2" points="283.3019,-46.4556 286.6786,-36.4133 277.7764,-42.158 283.3019,-46.4556"/>
</g>
<!-- 2 -->
<g id="node3" class="node">
<title>2</title>
<path fill="none" stroke="#56d892" stroke-width="2" d="M326.5,-180C326.5,-180 275.5,-180 275.5,-180 269.5,-180 263.5,-174 263.5,-168 263.5,-168 263.5,-156 263.5,-156 263.5,-150 269.5,-144 275.5,-144 275.5,-144 326.5,-144 326.5,-144 332.5,-144 338.5,-150 338.5,-156 338.5,-156 338.5,-168 338.5,-168 338.5,-174 332.5,-180 326.5,-180"/>
<text text-anchor="middle" x="301" y="-159.5" font-family="sans" font-size="10.00" fill="#000000">postprocess</text>
</g>
<!-- 2&#45;&gt;1 -->
<g id="edge3" class="edge">
<title>2&#45;&gt;1</title>
<path fill="none" stroke="#c0c0c0" stroke-width="2" d="M286.8688,-143.8314C280.4189,-135.5386 272.6555,-125.557 265.5748,-116.4533"/>
<polygon fill="#c0c0c0" stroke="#c0c0c0" stroke-width="2" points="268.2236,-114.158 259.3214,-108.4133 262.6981,-118.4556 268.2236,-114.158"/>
</g>
<!-- 10 -->
<g id="node11" class="node">
<title>10</title>
<path fill="none" stroke="#d87d56" stroke-width="2" d="M387,-108C387,-108 329,-108 329,-108 323,-108 317,-102 317,-96 317,-96 317,-84 317,-84 317,-78 323,-72 329,-72 329,-72 387,-72 387,-72 393,-72 399,-78 399,-84 399,-84 399,-96 399,-96 399,-102 393,-108 387,-108"/>
<text text-anchor="middle" x="358" y="-87.5" font-family="sans" font-size="10.00" fill="#000000">plot_dispatch</text>
</g>
<!-- 2&#45;&gt;10 -->
<g id="edge11" class="edge">
<title>2&#45;&gt;10</title>
<path fill="none" stroke="#c0c0c0" stroke-width="2" d="M315.3835,-143.8314C321.9486,-135.5386 329.8507,-125.557 337.0578,-116.4533"/>
<polygon fill="#c0c0c0" stroke="#c0c0c0" stroke-width="2" points="339.9599,-118.4262 343.4228,-108.4133 334.4716,-114.0813 339.9599,-118.4262"/>
</g>
<!-- 3 -->
<g id="node4" class="node">
<title>3</title>
<path fill="none" stroke="#b6d856" stroke-width="2" d="M318.5,-252C318.5,-252 283.5,-252 283.5,-252 277.5,-252 271.5,-246 271.5,-240 271.5,-240 271.5,-228 271.5,-228 271.5,-222 277.5,-216 283.5,-216 283.5,-216 318.5,-216 318.5,-216 324.5,-216 330.5,-222 330.5,-228 330.5,-228 330.5,-240 330.5,-240 330.5,-246 324.5,-252 318.5,-252"/>
<text text-anchor="middle" x="301" y="-231.5" font-family="sans" font-size="10.00" fill="#000000">optimize</text>
</g>
<!-- 3&#45;&gt;2 -->
<g id="edge4" class="edge">
<title>3&#45;&gt;2</title>
<path fill="none" stroke="#c0c0c0" stroke-width="2" d="M301,-215.8314C301,-208.131 301,-198.9743 301,-190.4166"/>
<polygon fill="#c0c0c0" stroke="#c0c0c0" stroke-width="2" points="304.5001,-190.4132 301,-180.4133 297.5001,-190.4133 304.5001,-190.4132"/>
</g>
<!-- 4 -->
<g id="node5" class="node">
<title>4</title>
<path fill="none" stroke="#d89556" stroke-width="2" d="M346.5,-324C346.5,-324 255.5,-324 255.5,-324 249.5,-324 243.5,-318 243.5,-312 243.5,-312 243.5,-300 243.5,-300 243.5,-294 249.5,-288 255.5,-288 255.5,-288 346.5,-288 346.5,-288 352.5,-288 358.5,-294 358.5,-300 358.5,-300 358.5,-312 358.5,-312 358.5,-318 352.5,-324 346.5,-324"/>
<text text-anchor="middle" x="301" y="-309" font-family="sans" font-size="10.00" fill="#000000">build_datapackage</text>
<text text-anchor="middle" x="301" y="-298" font-family="sans" font-size="10.00" fill="#000000">scenario: base&#45;2050</text>
</g>
<!-- 4&#45;&gt;3 -->
<g id="edge5" class="edge">
<title>4&#45;&gt;3</title>
<path fill="none" stroke="#c0c0c0" stroke-width="2" d="M301,-287.8314C301,-280.131 301,-270.9743 301,-262.4166"/>
<polygon fill="#c0c0c0" stroke="#c0c0c0" stroke-width="2" points="304.5001,-262.4132 301,-252.4133 297.5001,-262.4133 304.5001,-262.4132"/>
</g>
<!-- 5 -->
<g id="node6" class="node">
<title>5</title>
<path fill="none" stroke="#566bd8" stroke-width="2" d="M82,-396C82,-396 12,-396 12,-396 6,-396 0,-390 0,-384 0,-384 0,-372 0,-372 0,-366 6,-360 12,-360 12,-360 82,-360 82,-360 88,-360 94,-366 94,-372 94,-372 94,-384 94,-384 94,-390 88,-396 82,-396"/>
<text text-anchor="middle" x="47" y="-381" font-family="sans" font-size="10.00" fill="#000000">prepare_scalars</text>
<text text-anchor="middle" x="47" y="-370" font-family="sans" font-size="10.00" fill="#000000">range: base</text>
</g>
<!-- 5&#45;&gt;4 -->
<g id="edge6" class="edge">
<title>5&#45;&gt;4</title>
<path fill="none" stroke="#c0c0c0" stroke-width="2" d="M94.0064,-362.7225C97.0455,-361.7868 100.0631,-360.872 103,-360 146.1128,-347.1991 194.8455,-333.8939 233.1757,-323.6935"/>
<polygon fill="#c0c0c0" stroke="#c0c0c0" stroke-width="2" points="234.423,-326.9837 243.1908,-321.0359 232.6276,-320.2179 234.423,-326.9837"/>
</g>
<!-- 6 -->
<g id="node7" class="node">
<title>6</title>
<path fill="none" stroke="#5692d8" stroke-width="2" d="M226,-396C226,-396 124,-396 124,-396 118,-396 112,-390 112,-384 112,-384 112,-372 112,-372 112,-366 118,-360 124,-360 124,-360 226,-360 226,-360 232,-360 238,-366 238,-372 238,-372 238,-384 238,-384 238,-390 232,-396 226,-396"/>
<text text-anchor="middle" x="175" y="-375.5" font-family="sans" font-size="10.00" fill="#000000">prepare_heat_demand</text>
</g>
<!-- 6&#45;&gt;4 -->
<g id="edge7" class="edge">
<title>6&#45;&gt;4</title>
<path fill="none" stroke="#c0c0c0" stroke-width="2" d="M206.7951,-359.8314C223.0605,-350.5368 243.0386,-339.1208 260.4051,-329.1971"/>
<polygon fill="#c0c0c0" stroke="#c0c0c0" stroke-width="2" points="262.2691,-332.1631 269.2151,-324.1628 258.7961,-326.0854 262.2691,-332.1631"/>
</g>
<!-- 7 -->
<g id="node8" class="node">
<title>7</title>
<path fill="none" stroke="#8fd856" stroke-width="2" d="M334,-396C334,-396 268,-396 268,-396 262,-396 256,-390 256,-384 256,-384 256,-372 256,-372 256,-366 262,-360 268,-360 268,-360 334,-360 334,-360 340,-360 346,-366 346,-372 346,-372 346,-384 346,-384 346,-390 340,-396 334,-396"/>
<text text-anchor="middle" x="301" y="-375.5" font-family="sans" font-size="10.00" fill="#000000">prepare_feedin</text>
</g>
<!-- 7&#45;&gt;4 -->
<g id="edge8" class="edge">
<title>7&#45;&gt;4</title>
<path fill="none" stroke="#c0c0c0" stroke-width="2" d="M301,-359.8314C301,-352.131 301,-342.9743 301,-334.4166"/>
<polygon fill="#c0c0c0" stroke="#c0c0c0" stroke-width="2" points="304.5001,-334.4132 301,-324.4133 297.5001,-334.4133 304.5001,-334.4132"/>
</g>
<!-- 8 -->
<g id="node9" class="node">
<title>8</title>
<path fill="none" stroke="#d8bc56" stroke-width="2" d="M505.5,-396C505.5,-396 376.5,-396 376.5,-396 370.5,-396 364.5,-390 364.5,-384 364.5,-384 364.5,-372 364.5,-372 364.5,-366 370.5,-360 376.5,-360 376.5,-360 505.5,-360 505.5,-360 511.5,-360 517.5,-366 517.5,-372 517.5,-372 517.5,-384 517.5,-384 517.5,-390 511.5,-396 505.5,-396"/>
<text text-anchor="middle" x="441" y="-375.5" font-family="sans" font-size="10.00" fill="#000000">prepare_electricity_demand</text>
</g>
<!-- 8&#45;&gt;4 -->
<g id="edge9" class="edge">
<title>8&#45;&gt;4</title>
<path fill="none" stroke="#c0c0c0" stroke-width="2" d="M405.6721,-359.8314C387.3507,-350.4089 364.7898,-338.8062 345.3105,-328.7883"/>
<polygon fill="#c0c0c0" stroke="#c0c0c0" stroke-width="2" points="346.8102,-325.6239 336.3166,-324.1628 343.6088,-331.8489 346.8102,-325.6239"/>
</g>
<!-- 9 -->
<g id="node10" class="node">
<title>9</title>
<path fill="none" stroke="#d8a456" stroke-width="2" d="M710.5,-396C710.5,-396 547.5,-396 547.5,-396 541.5,-396 535.5,-390 535.5,-384 535.5,-384 535.5,-372 535.5,-372 535.5,-366 541.5,-360 547.5,-360 547.5,-360 710.5,-360 710.5,-360 716.5,-360 722.5,-366 722.5,-372 722.5,-372 722.5,-384 722.5,-384 722.5,-390 716.5,-396 710.5,-396"/>
<text text-anchor="middle" x="629" y="-375.5" font-family="sans" font-size="10.00" fill="#000000">prepare_vehicle_charging_demand</text>
</g>
<!-- 9&#45;&gt;4 -->
<g id="edge10" class="edge">
<title>9&#45;&gt;4</title>
<path fill="none" stroke="#c0c0c0" stroke-width="2" d="M546.6551,-359.9243C491.6824,-347.8571 420.276,-332.1825 368.6303,-320.8457"/>
<polygon fill="#c0c0c0" stroke="#c0c0c0" stroke-width="2" points="369.0933,-317.364 358.5754,-318.6385 367.5924,-324.2013 369.0933,-317.364"/>
</g>
<!-- 10&#45;&gt;0 -->
<g id="edge2" class="edge">
<title>10&#45;&gt;0</title>
<path fill="none" stroke="#c0c0c0" stroke-width="2" d="M343.6165,-71.8314C337.0514,-63.5386 329.1493,-53.557 321.9422,-44.4533"/>
<polygon fill="#c0c0c0" stroke="#c0c0c0" stroke-width="2" points="324.5284,-42.0813 315.5772,-36.4133 319.0401,-46.4262 324.5284,-42.0813"/>
</g>
</g>
</svg>
