<?xml version="1.0" encoding="UTF-8"?><svg xmlns="http://www.w3.org/2000/svg" xmlns:xlink="http://www.w3.org/1999/xlink" fill-opacity="1" color-rendering="auto" color-interpolation="auto" text-rendering="auto" stroke="black" stroke-linecap="square" width="750" stroke-miterlimit="10" shape-rendering="auto" stroke-opacity="1" fill="black" stroke-dasharray="none" font-weight="normal" stroke-width="1" height="644" font-family="'Dialog'" font-style="normal" stroke-linejoin="miter" font-size="12px" stroke-dashoffset="0" image-rendering="auto">
  <!--Generated by ySVG 2.5-->
  <defs id="genericDefs"/>
  <g>
    <defs id="defs1">
      <clipPath clipPathUnits="userSpaceOnUse" id="clipPath1">
        <path d="M0 0 L750 0 L750 644 L0 644 L0 0 Z"/>
      </clipPath>
      <clipPath clipPathUnits="userSpaceOnUse" id="clipPath2">
        <path d="M391 102 L1141 102 L1141 746 L391 746 L391 102 Z"/>
      </clipPath>
    </defs>
    <g fill="white" text-rendering="geometricPrecision" shape-rendering="geometricPrecision" transform="translate(-391,-102)" stroke="white">
      <rect x="391" width="750" height="644" y="102" clip-path="url(#clipPath2)" stroke="none"/>
    </g>
    <g text-rendering="geometricPrecision" stroke-miterlimit="1.45" shape-rendering="geometricPrecision" transform="matrix(1,0,0,1,-391,-102)" stroke-linecap="butt">
      <path fill="none" d="M515.0704 240 L515.0704 406.1128" clip-path="url(#clipPath2)"/>
      <path d="M515.0704 414.1128 L520.0704 402.1128 L515.0704 405.1128 L510.0704 402.1128 Z" clip-path="url(#clipPath2)" stroke="none"/>
      <path fill="none" d="M838.8704 202.944 L838.8704 224.1463" clip-path="url(#clipPath2)"/>
      <path d="M838.8704 194.944 L833.8704 206.944 L838.8704 203.944 L843.8704 206.944 Z" clip-path="url(#clipPath2)" stroke="none"/>
      <path d="M838.8704 232.1463 L843.8704 220.1463 L838.8704 223.1463 L833.8704 220.1463 Z" clip-path="url(#clipPath2)" stroke="none"/>
      <path fill="none" d="M522.0672 194.944 L522.0672 224.1277" clip-path="url(#clipPath2)"/>
      <path d="M522.0672 232.1277 L527.0672 220.1277 L522.0672 223.1277 L517.0672 220.1277 Z" clip-path="url(#clipPath2)" stroke="none"/>
      <path fill="none" d="M621.4672 194.944 L621.4672 224.1433" clip-path="url(#clipPath2)"/>
      <path d="M621.4672 232.1433 L626.4672 220.1433 L621.4672 223.1433 L616.4672 220.1433 Z" clip-path="url(#clipPath2)" stroke="none"/>
      <path fill="none" d="M676.4672 280.7928 L676.4672 248" clip-path="url(#clipPath2)"/>
      <path d="M676.4672 240 L671.4672 252 L676.4672 249 L681.4672 252 Z" clip-path="url(#clipPath2)" stroke="none"/>
      <path fill="none" d="M1070.8434 158.4134 L1021.9347 225.6481" clip-path="url(#clipPath2)"/>
      <path d="M1075.5494 151.944 L1064.447 158.7068 L1070.2551 159.2221 L1072.5337 164.5894 Z" clip-path="url(#clipPath2)" stroke="none"/>
      <path d="M1017.2286 232.1175 L1028.3311 225.3547 L1022.5229 224.8394 L1020.2443 219.4721 Z" clip-path="url(#clipPath2)" stroke="none"/>
      <path fill="none" d="M858.0672 407.1128 L858.0672 247.8516" clip-path="url(#clipPath2)"/>
      <path d="M858.0672 239.8516 L853.0672 251.8516 L858.0672 248.8516 L863.0672 251.8516 Z" clip-path="url(#clipPath2)" stroke="none"/>
      <path fill="none" d="M992.064 272.7928 L992.064 239.8447" clip-path="url(#clipPath2)"/>
      <path d="M992.064 280.7928 L997.064 268.7928 L992.064 271.7928 L987.064 268.7928 Z" clip-path="url(#clipPath2)" stroke="none"/>
      <path fill="none" d="M911.0672 570.096 L911.0672 247.8438" clip-path="url(#clipPath2)"/>
      <path d="M911.0672 239.8438 L906.0672 251.8438 L911.0672 248.8438 L916.0672 251.8438 Z" clip-path="url(#clipPath2)" stroke="none"/>
      <path fill="none" d="M720.8672 194.944 L720.8672 224.125" clip-path="url(#clipPath2)"/>
      <path d="M720.8672 232.125 L725.8672 220.125 L720.8672 223.125 L715.8672 220.125 Z" clip-path="url(#clipPath2)" stroke="none"/>
      <path fill="none" d="M956.8736 194.944 L956.8736 224.125" clip-path="url(#clipPath2)"/>
      <path d="M956.8736 232.125 L961.8736 220.125 L956.8736 223.125 L951.8736 220.125 Z" clip-path="url(#clipPath2)" stroke="none"/>
      <path fill="none" d="M529.3771 604.6016 L529.3771 633.2578" clip-path="url(#clipPath2)"/>
      <path d="M529.3771 641.2578 L534.3771 629.2578 L529.3771 632.2578 L524.3771 629.2578 Z" clip-path="url(#clipPath2)" stroke="none"/>
      <path fill="none" d="M981.4672 687.6656 L981.4672 648.9757" clip-path="url(#clipPath2)"/>
      <path d="M981.4672 695.6656 L986.4672 683.6656 L981.4672 686.6656 L976.4672 683.6656 Z" clip-path="url(#clipPath2)" stroke="none"/>
      <path fill="none" d="M911.0672 612.6016 L911.0672 641.2845" clip-path="url(#clipPath2)"/>
      <path d="M911.0672 604.6016 L906.0672 616.6016 L911.0672 613.6016 L916.0672 616.6016 Z" clip-path="url(#clipPath2)" stroke="none"/>
      <path fill="none" d="M515.0704 448.6184 L515.0704 490.7812" clip-path="url(#clipPath2)"/>
      <path d="M515.0704 498.7812 L520.0704 486.7812 L515.0704 489.7812 L510.0704 486.7812 Z" clip-path="url(#clipPath2)" stroke="none"/>
      <path fill="none" d="M858.0672 449.6184 L858.0672 498.7924" clip-path="url(#clipPath2)"/>
      <path d="M858.0672 441.6184 L853.0672 453.6184 L858.0672 450.6184 L863.0672 453.6184 Z" clip-path="url(#clipPath2)" stroke="none"/>
      <path fill="none" d="M575.8704 315.2984 L575.8704 348.249" clip-path="url(#clipPath2)"/>
      <path d="M575.8704 356.249 L580.8704 344.249 L575.8704 347.249 L570.8704 344.249 Z" clip-path="url(#clipPath2)" stroke="none"/>
      <path fill="none" d="M676.4672 315.2984 L676.4672 348.249" clip-path="url(#clipPath2)"/>
      <path d="M676.4672 356.249 L681.4672 344.249 L676.4672 347.249 L671.4672 344.249 Z" clip-path="url(#clipPath2)" stroke="none"/>
      <path fill="none" d="M777.064 323.2984 L777.064 348.2704" clip-path="url(#clipPath2)"/>
      <path d="M777.064 315.2984 L772.064 327.2984 L777.064 324.2984 L782.064 327.2984 Z" clip-path="url(#clipPath2)" stroke="none"/>
      <path d="M777.064 356.2704 L782.064 344.2704 L777.064 347.2704 L772.064 344.2704 Z" clip-path="url(#clipPath2)" stroke="none"/>
      <path fill="none" d="M721.4608 407.1128 L721.4608 371.9609" clip-path="url(#clipPath2)"/>
      <path d="M721.4608 363.9609 L716.4608 375.9609 L721.4608 372.9609 L726.4608 375.9609 Z" clip-path="url(#clipPath2)" stroke="none"/>
      <path fill="none" d="M997.3736 399.1128 L997.3736 363.9719" clip-path="url(#clipPath2)"/>
      <path d="M997.3736 407.1128 L1002.3736 395.1128 L997.3736 398.1128 L992.3736 395.1128 Z" clip-path="url(#clipPath2)" stroke="none"/>
      <path fill="none" d="M646.1824 641.2812 L646.1824 323.2588" clip-path="url(#clipPath2)"/>
      <path d="M646.1824 315.2588 L641.1824 327.2588 L646.1824 324.2588 L651.1824 327.2588 Z" clip-path="url(#clipPath2)" stroke="none"/>
      <path fill="none" d="M575.8704 239.8438 L575.8704 272.7928" clip-path="url(#clipPath2)"/>
      <path d="M575.8704 280.7928 L580.8704 268.7928 L575.8704 271.7928 L570.8704 268.7928 Z" clip-path="url(#clipPath2)" stroke="none"/>
      <path fill="none" d="M721.4608 641.2734 L721.4608 449.6184" clip-path="url(#clipPath2)"/>
      <path d="M721.4608 441.6184 L716.4608 453.6184 L721.4608 450.6184 L726.4608 453.6184 Z" clip-path="url(#clipPath2)" stroke="none"/>
      <path fill="none" d="M529.3771 506.4764 L529.3771 562.0649" clip-path="url(#clipPath2)"/>
      <path d="M529.3771 570.0649 L534.3771 558.0649 L529.3771 561.0649 L524.3771 558.0649 Z" clip-path="url(#clipPath2)" stroke="none"/>
      <path fill="none" d="M495.338 542.1382 L495.338 562.0969" clip-path="url(#clipPath2)"/>
      <path d="M495.338 570.0969 L500.338 558.0969 L495.338 561.0969 L490.338 558.0969 Z" clip-path="url(#clipPath2)" stroke="none"/>
    </g>
    <g fill="rgb(255,204,204)" text-rendering="geometricPrecision" shape-rendering="geometricPrecision" transform="matrix(1,0,0,1,-391,-102)" stroke="rgb(255,204,204)">
      <rect x="471.6672" width="86.8064" height="34.5056" y="414.1128" clip-path="url(#clipPath2)" stroke="none"/>
    </g>
    <g font-size="14px" stroke-linecap="butt" transform="matrix(1,0,0,1,-391,-102)" text-rendering="geometricPrecision" font-family="'Roboto'" shape-rendering="geometricPrecision" font-weight="bold" stroke-miterlimit="1.45">
      <text x="480.1251" xml:space="preserve" y="436.8036" clip-path="url(#clipPath2)" stroke="none">Elektrolyse</text>
    </g>
    <g fill="rgb(51,102,255)" text-rendering="geometricPrecision" shape-rendering="geometricPrecision" transform="matrix(1,0,0,1,-391,-102)" stroke="rgb(51,102,255)">
      <rect x="463.4672" y="232.144" clip-path="url(#clipPath2)" width="594" rx="4" ry="4" height="7.6752" stroke="none"/>
    </g>
    <g text-rendering="geometricPrecision" stroke-miterlimit="1.45" shape-rendering="geometricPrecision" font-family="'Roboto'" transform="matrix(1,0,0,1,-391,-102)" stroke-linecap="butt">
      <text x="413.9924" xml:space="preserve" y="240.6427" clip-path="url(#clipPath2)" stroke="none">Strom</text>
    </g>
    <g fill="rgb(153,204,0)" text-rendering="geometricPrecision" shape-rendering="geometricPrecision" transform="matrix(1,0,0,1,-391,-102)" stroke="rgb(153,204,0)">
      <rect x="463.4672" y="641.296" clip-path="url(#clipPath2)" width="594" rx="4" ry="4" height="7.6752" stroke="none"/>
    </g>
    <g text-rendering="geometricPrecision" stroke-miterlimit="1.45" shape-rendering="geometricPrecision" font-family="'Roboto'" transform="matrix(1,0,0,1,-391,-102)" stroke-linecap="butt">
      <text x="423.3498" xml:space="preserve" y="649.7947" clip-path="url(#clipPath2)" stroke="none">CH4</text>
    </g>
    <g fill="rgb(51,204,204)" text-rendering="geometricPrecision" shape-rendering="geometricPrecision" transform="matrix(1,0,0,1,-391,-102)" stroke="rgb(51,204,204)">
      <rect x="463.4672" y="498.784" clip-path="url(#clipPath2)" width="594" rx="4" ry="4" height="7.6752" stroke="none"/>
    </g>
    <g text-rendering="geometricPrecision" stroke-miterlimit="1.45" shape-rendering="geometricPrecision" font-family="'Roboto'" transform="matrix(1,0,0,1,-391,-102)" stroke-linecap="butt">
      <text x="431.1603" xml:space="preserve" y="507.2827" clip-path="url(#clipPath2)" stroke="none">H2</text>
    </g>
    <g fill="rgb(255,102,0)" text-rendering="geometricPrecision" shape-rendering="geometricPrecision" transform="matrix(1,0,0,1,-391,-102)" stroke="rgb(255,102,0)">
      <rect x="463.4672" y="356.272" clip-path="url(#clipPath2)" width="594" rx="4" ry="4" height="7.6752" stroke="none"/>
    </g>
    <g text-rendering="geometricPrecision" stroke-miterlimit="1.45" shape-rendering="geometricPrecision" font-family="'Roboto'" transform="matrix(1,0,0,1,-391,-102)" stroke-linecap="butt">
      <text x="408.3439" xml:space="preserve" y="364.7707" clip-path="url(#clipPath2)" stroke="none">Wärme</text>
    </g>
    <g fill="rgb(255,204,204)" text-rendering="geometricPrecision" shape-rendering="geometricPrecision" transform="matrix(1,0,0,1,-391,-102)" stroke="rgb(255,204,204)">
      <rect x="633.064" width="86.8064" height="34.5056" y="280.7928" clip-path="url(#clipPath2)" stroke="none"/>
    </g>
    <g font-size="14px" stroke-linecap="butt" transform="matrix(1,0,0,1,-391,-102)" text-rendering="geometricPrecision" font-family="'Roboto'" shape-rendering="geometricPrecision" font-weight="bold" stroke-miterlimit="1.45">
      <text x="661.4589" xml:space="preserve" y="303.4836" clip-path="url(#clipPath2)" stroke="none">KWK</text>
    </g>
    <g fill="rgb(255,204,204)" text-rendering="geometricPrecision" shape-rendering="geometricPrecision" transform="matrix(1,0,0,1,-391,-102)" stroke="rgb(255,204,204)">
      <rect x="532.4672" width="86.8064" height="34.5056" y="280.7928" clip-path="url(#clipPath2)" stroke="none"/>
    </g>
    <g font-size="14px" stroke-linecap="butt" transform="matrix(1,0,0,1,-391,-102)" text-rendering="geometricPrecision" font-family="'Roboto'" shape-rendering="geometricPrecision" font-weight="bold" stroke-miterlimit="1.45">
      <text x="564.0443" xml:space="preserve" y="303.4836" clip-path="url(#clipPath2)" stroke="none">PtH</text>
    </g>
    <g fill="rgb(255,204,204)" text-rendering="geometricPrecision" shape-rendering="geometricPrecision" transform="matrix(1,0,0,1,-391,-102)" stroke="rgb(255,204,204)">
      <rect x="780.4672" width="116.8064" height="34.5056" y="160.4384" clip-path="url(#clipPath2)" stroke="none"/>
    </g>
    <g font-size="14px" stroke-linecap="butt" transform="matrix(1,0,0,1,-391,-102)" text-rendering="geometricPrecision" font-family="'Roboto'" shape-rendering="geometricPrecision" font-weight="bold" stroke-miterlimit="1.45">
      <text x="789.0296" xml:space="preserve" y="183.1292" clip-path="url(#clipPath2)" stroke="none">Li-Ion-Batterien</text>
    </g>
    <g fill="rgb(255,204,204)" text-rendering="geometricPrecision" shape-rendering="geometricPrecision" transform="matrix(1,0,0,1,-391,-102)" stroke="rgb(255,204,204)">
      <rect x="729.6608" width="94.8064" height="34.5056" y="280.7928" clip-path="url(#clipPath2)" stroke="none"/>
    </g>
    <g font-size="14px" stroke-linecap="butt" transform="matrix(1,0,0,1,-391,-102)" text-rendering="geometricPrecision" font-family="'Roboto'" shape-rendering="geometricPrecision" font-weight="bold" stroke-miterlimit="1.45">
      <text x="752.0787" xml:space="preserve" y="294.2516" clip-path="url(#clipPath2)" stroke="none">Wärme-</text>
      <text x="749.98" xml:space="preserve" y="312.7155" clip-path="url(#clipPath2)" stroke="none">speicher</text>
    </g>
    <g fill="rgb(255,204,204)" text-rendering="geometricPrecision" shape-rendering="geometricPrecision" transform="matrix(1,0,0,1,-391,-102)" stroke="rgb(255,204,204)">
      <rect x="671.2576" width="100.4064" height="34.5056" y="407.1128" clip-path="url(#clipPath2)" stroke="none"/>
    </g>
    <g font-size="14px" stroke-linecap="butt" transform="matrix(1,0,0,1,-391,-102)" text-rendering="geometricPrecision" font-family="'Roboto'" shape-rendering="geometricPrecision" font-weight="bold" stroke-miterlimit="1.45">
      <text x="683.4427" xml:space="preserve" y="420.5717" clip-path="url(#clipPath2)" stroke="none">Spitzenlast-</text>
      <text x="701.1" xml:space="preserve" y="439.0355" clip-path="url(#clipPath2)" stroke="none">kessel</text>
    </g>
    <g fill="rgb(255,204,204)" text-rendering="geometricPrecision" shape-rendering="geometricPrecision" transform="matrix(1,0,0,1,-391,-102)" stroke="rgb(255,204,204)">
      <rect x="478.664" width="86.8064" height="34.5056" y="160.4384" clip-path="url(#clipPath2)" stroke="none"/>
    </g>
    <g font-size="14px" stroke-linecap="butt" transform="matrix(1,0,0,1,-391,-102)" text-rendering="geometricPrecision" font-family="'Roboto'" shape-rendering="geometricPrecision" font-weight="bold" stroke-miterlimit="1.45">
      <text x="506.2249" xml:space="preserve" y="183.1292" clip-path="url(#clipPath2)" stroke="none">Wind</text>
    </g>
    <g fill="rgb(255,204,204)" text-rendering="geometricPrecision" shape-rendering="geometricPrecision" transform="matrix(1,0,0,1,-391,-102)" stroke="rgb(255,204,204)">
      <rect x="578.064" width="86.8064" height="34.5056" y="160.4384" clip-path="url(#clipPath2)" stroke="none"/>
    </g>
    <g font-size="14px" stroke-linecap="butt" transform="matrix(1,0,0,1,-391,-102)" text-rendering="geometricPrecision" font-family="'Roboto'" shape-rendering="geometricPrecision" font-weight="bold" stroke-miterlimit="1.45">
      <text x="612.3754" xml:space="preserve" y="183.1292" clip-path="url(#clipPath2)" stroke="none">PV</text>
    </g>
    <g fill="rgb(255,204,204)" text-rendering="geometricPrecision" shape-rendering="geometricPrecision" transform="matrix(1,0,0,1,-391,-102)" stroke="rgb(255,204,204)">
      <rect x="470.9739" width="116.8064" height="34.5056" y="570.096" clip-path="url(#clipPath2)" stroke="none"/>
    </g>
    <g font-size="14px" stroke-linecap="butt" transform="matrix(1,0,0,1,-391,-102)" text-rendering="geometricPrecision" font-family="'Roboto'" shape-rendering="geometricPrecision" font-weight="bold" stroke-miterlimit="1.45">
      <text x="480.025" xml:space="preserve" y="592.7868" clip-path="url(#clipPath2)" stroke="none">Methanisierung</text>
    </g>
    <g fill="gray" text-rendering="geometricPrecision" shape-rendering="geometricPrecision" transform="matrix(1,0,0,1,-391,-102)" stroke="gray">
      <rect x="463.4672" y="534.44" clip-path="url(#clipPath2)" width="594" rx="4" ry="4" height="7.6752" stroke="none"/>
    </g>
    <g text-rendering="geometricPrecision" stroke-miterlimit="1.45" shape-rendering="geometricPrecision" font-family="'Roboto'" transform="matrix(1,0,0,1,-391,-102)" stroke-linecap="butt">
      <text x="423.6545" xml:space="preserve" y="542.9387" clip-path="url(#clipPath2)" stroke="none">CO2</text>
    </g>
    <g fill="rgb(255,204,204)" text-rendering="geometricPrecision" shape-rendering="geometricPrecision" transform="matrix(1,0,0,1,-391,-102)" stroke="rgb(255,204,204)">
      <rect x="1025.3462" width="100.4064" height="34.5056" y="117.4384" clip-path="url(#clipPath2)" stroke="none"/>
    </g>
    <g font-size="14px" stroke-linecap="butt" transform="matrix(1,0,0,1,-391,-102)" text-rendering="geometricPrecision" font-family="'Roboto'" shape-rendering="geometricPrecision" font-weight="bold" stroke-miterlimit="1.45">
      <text x="1031.7003" xml:space="preserve" y="140.1292" clip-path="url(#clipPath2)" stroke="none">Import/Export</text>
    </g>
    <g fill="rgb(255,204,204)" text-rendering="geometricPrecision" shape-rendering="geometricPrecision" transform="matrix(1,0,0,1,-391,-102)" stroke="rgb(255,204,204)">
      <rect x="785.664" width="144.8064" height="34.5056" y="407.1128" clip-path="url(#clipPath2)" stroke="none"/>
    </g>
    <g font-size="14px" stroke-linecap="butt" transform="matrix(1,0,0,1,-391,-102)" text-rendering="geometricPrecision" font-family="'Roboto'" shape-rendering="geometricPrecision" font-weight="bold" stroke-miterlimit="1.45">
      <text x="791.345" xml:space="preserve" y="429.8036" clip-path="url(#clipPath2)" stroke="none">Rückverstromung H2</text>
    </g>
    <g fill="rgb(255,204,204)" text-rendering="geometricPrecision" shape-rendering="geometricPrecision" transform="matrix(1,0,0,1,-391,-102)" stroke="rgb(255,204,204)">
      <rect x="912.564" width="137.8064" height="34.5056" y="695.6656" clip-path="url(#clipPath2)" stroke="none"/>
    </g>
    <g font-size="14px" stroke-linecap="butt" transform="matrix(1,0,0,1,-391,-102)" text-rendering="geometricPrecision" font-family="'Roboto'" shape-rendering="geometricPrecision" font-weight="bold" stroke-miterlimit="1.45">
      <text x="923.8881" xml:space="preserve" y="718.3564" clip-path="url(#clipPath2)" stroke="none">Abnahme Gasnetz</text>
    </g>
    <g fill="rgb(255,204,204)" text-rendering="geometricPrecision" shape-rendering="geometricPrecision" transform="matrix(1,0,0,1,-391,-102)" stroke="rgb(255,204,204)">
      <rect x="944.4704" width="105.8064" height="34.5056" y="407.1128" clip-path="url(#clipPath2)" stroke="none"/>
    </g>
    <g font-size="14px" stroke-linecap="butt" transform="matrix(1,0,0,1,-391,-102)" text-rendering="geometricPrecision" font-family="'Roboto'" shape-rendering="geometricPrecision" font-weight="bold" stroke-miterlimit="1.45">
      <text x="954.6182" xml:space="preserve" y="429.8036" clip-path="url(#clipPath2)" stroke="none">Wärmebedarf</text>
    </g>
    <g fill="rgb(255,204,204)" text-rendering="geometricPrecision" shape-rendering="geometricPrecision" transform="matrix(1,0,0,1,-391,-102)" stroke="rgb(255,204,204)">
      <rect x="939.1608" width="105.8064" height="34.5056" y="280.7928" clip-path="url(#clipPath2)" stroke="none"/>
    </g>
    <g font-size="14px" stroke-linecap="butt" transform="matrix(1,0,0,1,-391,-102)" text-rendering="geometricPrecision" font-family="'Roboto'" shape-rendering="geometricPrecision" font-weight="bold" stroke-miterlimit="1.45">
      <text x="952.3404" xml:space="preserve" y="303.4836" clip-path="url(#clipPath2)" stroke="none">Strombedarf</text>
    </g>
    <g fill="rgb(255,204,204)" text-rendering="geometricPrecision" shape-rendering="geometricPrecision" transform="matrix(1,0,0,1,-391,-102)" stroke="rgb(255,204,204)">
      <rect x="838.664" width="144.8064" height="34.5056" y="570.096" clip-path="url(#clipPath2)" stroke="none"/>
    </g>
    <g font-size="14px" stroke-linecap="butt" transform="matrix(1,0,0,1,-391,-102)" text-rendering="geometricPrecision" font-family="'Roboto'" shape-rendering="geometricPrecision" font-weight="bold" stroke-miterlimit="1.45">
      <text x="839.765" xml:space="preserve" y="592.7868" clip-path="url(#clipPath2)" stroke="none">Rückverstromung CH4</text>
    </g>
    <g fill="rgb(255,204,204)" text-rendering="geometricPrecision" shape-rendering="geometricPrecision" transform="matrix(1,0,0,1,-391,-102)" stroke="rgb(255,204,204)">
      <rect x="677.464" width="86.8064" height="34.5056" y="160.4384" clip-path="url(#clipPath2)" stroke="none"/>
    </g>
    <g font-size="14px" stroke-linecap="butt" transform="matrix(1,0,0,1,-391,-102)" text-rendering="geometricPrecision" font-family="'Roboto'" shape-rendering="geometricPrecision" font-weight="bold" stroke-miterlimit="1.45">
      <text x="684.4658" xml:space="preserve" y="183.1292" clip-path="url(#clipPath2)" stroke="none">Laufwasser</text>
    </g>
    <g fill="rgb(255,204,204)" text-rendering="geometricPrecision" shape-rendering="geometricPrecision" transform="matrix(1,0,0,1,-391,-102)" stroke="rgb(255,204,204)">
      <rect x="913.4704" width="86.8064" height="34.5056" y="160.4384" clip-path="url(#clipPath2)" stroke="none"/>
    </g>
    <g font-size="14px" stroke-linecap="butt" transform="matrix(1,0,0,1,-391,-102)" text-rendering="geometricPrecision" font-family="'Roboto'" shape-rendering="geometricPrecision" font-weight="bold" stroke-miterlimit="1.45">
      <text x="925.7974" xml:space="preserve" y="183.1292" clip-path="url(#clipPath2)" stroke="none">Biomasse</text>
    </g>
  </g>
</svg>
